# Blender v2.78 (sub 0) OBJ File: ''
# www.blender.org
mtllib arcade_machine.mtl
o arcade_machine_shape24
v 0.250246 1.029468 0.083032
v 0.187746 1.029468 0.083032
v 0.187746 1.084290 0.053018
v 0.250246 1.084290 0.053018
v 0.187746 1.059482 0.137854
v 0.250246 1.059482 0.137854
v 0.250246 1.114304 0.107840
v 0.187746 1.114304 0.107840
v 0.250246 1.029468 -0.004468
v 0.187746 1.029468 -0.004468
v 0.187746 1.084290 -0.034482
v 0.250246 1.084290 -0.034482
v 0.187746 1.059482 0.050354
v 0.250246 1.059482 0.050354
v 0.250246 1.114304 0.020340
v 0.187746 1.114304 0.020340
v 0.125246 0.922715 0.055928
v 0.062746 0.922715 0.055928
v 0.062746 1.721790 0.203018
v 0.125246 1.721790 0.203018
v 0.062746 0.854827 0.424732
v 0.125246 0.854827 0.424732
v 0.125246 1.653902 0.571822
v 0.062746 1.653902 0.571822
v 0.937746 0.922715 0.055928
v 0.875246 0.922715 0.055928
v 0.875246 1.721790 0.203018
v 0.937746 1.721790 0.203018
v 0.875246 0.854827 0.424732
v 0.937746 0.854827 0.424732
v 0.937746 1.653902 0.571822
v 0.875246 1.653902 0.571822
v 0.531496 1.079468 0.070532
v 0.468996 1.079468 0.070532
v 0.468996 1.134290 0.040518
v 0.531496 1.134290 0.040518
v 0.875246 1.109285 0.069613
v 0.125246 1.109285 0.069613
v 0.125246 1.423309 0.952956
v 0.875246 1.423309 0.952956
v 0.125246 1.003040 0.184268
v 0.062746 1.003040 0.184268
v 0.062746 2.128040 0.184268
v 0.125246 2.128040 0.184268
v 0.062746 1.003040 0.496768
v 0.125246 1.003040 0.496768
v 0.125246 2.128040 0.496768
v 0.062746 2.128040 0.496768
v 0.125246 1.047978 0.160728
v 0.062746 1.047978 0.160728
v 0.062746 2.127277 0.492207
v 0.125246 2.127277 0.492207
v 0.062746 0.946818 0.521826
v 0.125246 0.946818 0.521826
v 0.125246 2.030112 0.825306
v 0.062746 2.030112 0.825306
v 0.125246 1.074138 0.229689
v 0.062746 1.074138 0.229689
v 0.062746 2.035405 0.814148
v 0.125246 2.035405 0.814148
v 0.062746 0.976729 0.389900
v 0.125246 0.976729 0.389900
v 0.125246 1.937995 0.974359
v 0.062746 1.937995 0.974359
v 0.125246 0.809290 0.484268
v 0.062746 0.809290 0.484268
v 0.062746 1.934290 0.484268
v 0.125246 1.934290 0.484268
v 0.062746 0.809290 0.984268
v 0.125246 0.809290 0.984268
v 0.125246 1.934290 0.984268
v 0.062746 1.934290 0.984268
v 0.937746 1.003040 0.184268
v 0.875246 1.003040 0.184268
v 0.875246 2.128040 0.184268
v 0.937746 2.128040 0.184268
v 0.875246 1.003040 0.496768
v 0.937746 1.003040 0.496768
v 0.937746 2.128040 0.496768
v 0.875246 2.128040 0.496768
v 0.937746 1.047978 0.160728
v 0.875246 1.047978 0.160728
v 0.875246 2.131272 0.492207
v 0.937746 2.131272 0.492207
v 0.875246 0.946818 0.521826
v 0.937746 0.946818 0.521826
v 0.937746 2.030112 0.825306
v 0.875246 2.030112 0.825306
v 0.937746 1.074138 0.229689
v 0.875246 1.074138 0.229689
v 0.875246 2.035405 0.814148
v 0.937746 2.035405 0.814148
v 0.875246 0.976729 0.389900
v 0.937746 0.976729 0.389900
v 0.937746 1.937995 0.974359
v 0.875246 1.937995 0.974359
v 0.937746 0.809290 0.484268
v 0.875246 0.809290 0.484268
v 0.875246 1.934290 0.484268
v 0.937746 1.934290 0.484268
v 0.875246 0.809290 0.984268
v 0.937746 0.809290 0.984268
v 0.937746 1.934290 0.984268
v 0.875246 1.934290 0.984268
v 0.125246 1.304113 0.525406
v 0.062746 1.304113 0.525406
v 0.062746 0.865540 0.765518
v 0.125246 0.865540 0.765518
v 0.062746 1.244085 0.415763
v 0.125246 1.244085 0.415763
v 0.125246 0.805512 0.655875
v 0.062746 0.805512 0.655875
v 0.937746 1.304113 0.525406
v 0.875246 1.304113 0.525406
v 0.875246 0.865540 0.765518
v 0.937746 0.865540 0.765518
v 0.875246 1.244085 0.415763
v 0.937746 1.244085 0.415763
v 0.937746 0.805512 0.655875
v 0.875246 0.805512 0.655875
v 0.875246 1.784290 0.165518
v 0.125246 1.784290 0.165518
v 0.125246 2.096790 0.165518
v 0.875246 2.096790 0.165518
v 0.125246 1.784290 0.228018
v 0.875246 1.784290 0.228018
v 0.875246 2.096790 0.228018
v 0.125246 2.096790 0.228018
v 0.937746 0.814811 0.044488
v 0.062746 0.814811 0.044488
v 0.062746 1.034098 -0.075568
v 0.937746 1.034098 -0.075568
v 0.062746 0.904853 0.208953
v 0.937746 0.904853 0.208953
v 0.937746 1.124140 0.088897
v 0.062746 1.124140 0.088897
v 0.125246 1.056365 -0.047887
v 0.062746 1.056365 -0.047887
v 0.062746 1.444223 0.267654
v 0.125246 1.444223 0.267654
v 0.062746 0.977480 0.049078
v 0.125246 0.977480 0.049078
v 0.125246 1.365338 0.364619
v 0.062746 1.365338 0.364619
v 0.937746 1.056365 -0.047887
v 0.875246 1.056365 -0.047887
v 0.875246 1.444223 0.267654
v 0.937746 1.444223 0.267654
v 0.875246 0.977480 0.049078
v 0.937746 0.977480 0.049078
v 0.937746 1.365338 0.364619
v 0.875246 1.365338 0.364619
v 0.656496 0.440540 -0.015732
v 0.343996 0.440540 -0.015732
v 0.343996 0.815540 -0.015732
v 0.656496 0.815540 -0.015732
v 0.343996 0.440540 0.046768
v 0.656496 0.440540 0.046768
v 0.656496 0.815540 0.046768
v 0.343996 0.815540 0.046768
v 0.937746 0.003040 -0.003232
v 0.062746 0.003040 -0.003232
v 0.062746 1.003040 -0.003232
v 0.937746 1.003040 -0.003232
v 0.062746 0.003040 0.996768
v 0.937746 0.003040 0.996768
v 0.937746 1.003040 0.996768
v 0.062746 1.003040 0.996768
v 0.500246 0.954468 0.039282
v 0.437746 0.954468 0.039282
v 0.437746 1.009290 0.009268
v 0.500246 1.009290 0.009268
v 0.437746 0.984482 0.094104
v 0.500246 0.984482 0.094104
v 0.500246 1.039304 0.064090
v 0.437746 1.039304 0.064090
v 0.937746 0.990540 0.934268
v 0.062746 0.990540 0.934268
v 0.062746 1.803040 0.934268
v 0.937746 1.803040 0.934268
v 0.062746 0.990540 0.996768
v 0.937746 0.990540 0.996768
v 0.937746 1.803040 0.996768
v 0.062746 1.803040 0.996768
v 0.875246 1.981830 0.178936
v 0.125246 1.981830 0.178936
v 0.125246 2.096790 0.228018
v 0.875246 2.096790 0.228018
v 0.125246 1.662795 0.926179
v 0.875246 1.662795 0.926179
v 0.875246 1.777755 0.975262
v 0.125246 1.777755 0.975262
v 0.125246 1.481829 0.928936
v 0.875246 1.481829 0.928936
v 0.875246 1.596790 0.978018
v 0.125246 1.596790 0.978018
v 0.875246 1.800864 0.181692
v 0.125246 1.800864 0.181692
v 0.125246 1.915825 0.230774
v 0.875246 1.915825 0.230774
v 0.781496 1.120210 0.226561
v 0.218996 1.120210 0.226561
v 0.218996 1.329559 0.815456
v 0.781496 1.329559 0.815456
v 0.218996 0.943541 0.289366
v 0.781496 0.943541 0.289366
v 0.781496 1.152890 0.878261
v 0.218996 1.152890 0.878261
vt 0.0100 0.6600
vt 0.0200 0.6600
vt 0.0200 0.6700
vt 0.0100 0.6700
vt 0.0300 0.6600
vt 0.0400 0.6600
vt 0.0400 0.6700
vt 0.0300 0.6700
vt 0.0200 0.6800
vt 0.0100 0.6800
vt 0.0200 0.6700
vt 0.0300 0.6700
vt 0.0300 0.6800
vt 0.0200 0.6800
vt 0.0000 0.6600
vt 0.0000 0.6700
vt 0.0100 0.9800
vt 0.0200 0.9800
vt 0.0200 0.9900
vt 0.0100 0.9900
vt 0.0300 0.9800
vt 0.0400 0.9800
vt 0.0400 0.9900
vt 0.0300 0.9900
vt 0.0200 1.0000
vt 0.0100 1.0000
vt 0.0200 0.9900
vt 0.0300 0.9900
vt 0.0300 1.0000
vt 0.0200 1.0000
vt 0.0000 0.9800
vt 0.0000 0.9900
vt 0.0600 0.8100
vt 0.0700 0.8100
vt 0.0700 0.9400
vt 0.0600 0.9400
vt 0.1300 0.8100
vt 0.1400 0.8100
vt 0.1400 0.9400
vt 0.1300 0.9400
vt 0.0700 1.0000
vt 0.0600 1.0000
vt 0.0700 0.9400
vt 0.0800 0.9400
vt 0.0800 1.0000
vt 0.0700 1.0000
vt 0.0000 0.8100
vt 0.0000 0.9400
vt 0.0600 0.8100
vt 0.0700 0.8100
vt 0.0700 0.9400
vt 0.0600 0.9400
vt 0.1300 0.8100
vt 0.1400 0.8100
vt 0.1400 0.9400
vt 0.1300 0.9400
vt 0.0700 1.0000
vt 0.0600 1.0000
vt 0.0700 0.9400
vt 0.0800 0.9400
vt 0.0800 1.0000
vt 0.0700 1.0000
vt 0.0000 0.8100
vt 0.0000 0.9400
vt 0.0100 0.6300
vt 0.0200 0.6300
vt 0.0200 0.6400
vt 0.0100 0.6400
vt 0.1200 0.0000
vt 0.2400 0.0000
vt 0.2400 0.1500
vt 0.1200 0.1500
vt 0.0500 0.2500
vt 0.0600 0.2500
vt 0.0600 0.4300
vt 0.0500 0.4300
vt 0.1100 0.2500
vt 0.1200 0.2500
vt 0.1200 0.4300
vt 0.1100 0.4300
vt 0.0600 0.4800
vt 0.0500 0.4800
vt 0.0600 0.4300
vt 0.0700 0.4300
vt 0.0700 0.4800
vt 0.0600 0.4800
vt 0.0000 0.2500
vt 0.0000 0.4300
vt 0.0600 0.2400
vt 0.0700 0.2400
vt 0.0700 0.4200
vt 0.0600 0.4200
vt 0.1300 0.2400
vt 0.1400 0.2400
vt 0.1400 0.4200
vt 0.1300 0.4200
vt 0.0700 0.4800
vt 0.0600 0.4800
vt 0.0700 0.4200
vt 0.0800 0.4200
vt 0.0800 0.4800
vt 0.0700 0.4800
vt 0.0000 0.2400
vt 0.0000 0.4200
vt 0.0300 0.2700
vt 0.0400 0.2700
vt 0.0400 0.4500
vt 0.0300 0.4500
vt 0.0700 0.2700
vt 0.0800 0.2700
vt 0.0800 0.4500
vt 0.0700 0.4500
vt 0.0400 0.4800
vt 0.0300 0.4800
vt 0.0400 0.4500
vt 0.0500 0.4500
vt 0.0500 0.4800
vt 0.0400 0.4800
vt 0.0000 0.2700
vt 0.0000 0.4500
vt 0.0800 0.2200
vt 0.0900 0.2200
vt 0.0900 0.4000
vt 0.0800 0.4000
vt 0.1700 0.2200
vt 0.1800 0.2200
vt 0.1800 0.4000
vt 0.1700 0.4000
vt 0.0900 0.4800
vt 0.0800 0.4800
vt 0.0900 0.4000
vt 0.1000 0.4000
vt 0.1000 0.4800
vt 0.0900 0.4800
vt 0.0000 0.2200
vt 0.0000 0.4000
vt 0.0500 0.2500
vt 0.0600 0.2500
vt 0.0600 0.4300
vt 0.0500 0.4300
vt 0.1100 0.2500
vt 0.1200 0.2500
vt 0.1200 0.4300
vt 0.1100 0.4300
vt 0.0600 0.4800
vt 0.0500 0.4800
vt 0.0600 0.4300
vt 0.0700 0.4300
vt 0.0700 0.4800
vt 0.0600 0.4800
vt 0.0000 0.2500
vt 0.0000 0.4300
vt 0.0600 0.2400
vt 0.0700 0.2400
vt 0.0700 0.4200
vt 0.0600 0.4200
vt 0.1300 0.2400
vt 0.1400 0.2400
vt 0.1400 0.4200
vt 0.1300 0.4200
vt 0.0700 0.4800
vt 0.0600 0.4800
vt 0.0700 0.4200
vt 0.0800 0.4200
vt 0.0800 0.4800
vt 0.0700 0.4800
vt 0.0000 0.2400
vt 0.0000 0.4200
vt 0.0300 0.2700
vt 0.0400 0.2700
vt 0.0400 0.4500
vt 0.0300 0.4500
vt 0.0700 0.2700
vt 0.0800 0.2700
vt 0.0800 0.4500
vt 0.0700 0.4500
vt 0.0400 0.4800
vt 0.0300 0.4800
vt 0.0400 0.4500
vt 0.0500 0.4500
vt 0.0500 0.4800
vt 0.0400 0.4800
vt 0.0000 0.2700
vt 0.0000 0.4500
vt 0.0800 0.2200
vt 0.0900 0.2200
vt 0.0900 0.4000
vt 0.0800 0.4000
vt 0.1700 0.2200
vt 0.1800 0.2200
vt 0.1800 0.4000
vt 0.1700 0.4000
vt 0.0900 0.4800
vt 0.0800 0.4800
vt 0.0900 0.4000
vt 0.1000 0.4000
vt 0.1000 0.4800
vt 0.0900 0.4800
vt 0.0000 0.2200
vt 0.0000 0.4000
vt 0.0200 0.9000
vt 0.0300 0.9000
vt 0.0300 0.9800
vt 0.0200 0.9800
vt 0.0500 0.9000
vt 0.0600 0.9000
vt 0.0600 0.9800
vt 0.0500 0.9800
vt 0.0300 1.0000
vt 0.0200 1.0000
vt 0.0300 0.9800
vt 0.0400 0.9800
vt 0.0400 1.0000
vt 0.0300 1.0000
vt 0.0000 0.9000
vt 0.0000 0.9800
vt 0.0200 0.9000
vt 0.0300 0.9000
vt 0.0300 0.9800
vt 0.0200 0.9800
vt 0.0500 0.9000
vt 0.0600 0.9000
vt 0.0600 0.9800
vt 0.0500 0.9800
vt 0.0300 1.0000
vt 0.0200 1.0000
vt 0.0300 0.9800
vt 0.0400 0.9800
vt 0.0400 1.0000
vt 0.0300 1.0000
vt 0.0000 0.9000
vt 0.0000 0.9800
vt 0.6700 0.3600
vt 0.7900 0.3600
vt 0.7900 0.4100
vt 0.6700 0.4100
vt 0.8000 0.3600
vt 0.9200 0.3600
vt 0.9200 0.4100
vt 0.8000 0.4100
vt 0.7900 0.4200
vt 0.6700 0.4200
vt 0.7900 0.4100
vt 0.9100 0.4100
vt 0.9100 0.4200
vt 0.7900 0.4200
vt 0.6600 0.3600
vt 0.6600 0.4100
vt 0.0300 0.9300
vt 0.1700 0.9300
vt 0.1700 0.9700
vt 0.0300 0.9700
vt 0.2000 0.9300
vt 0.3400 0.9300
vt 0.3400 0.9700
vt 0.2000 0.9700
vt 0.1700 1.0000
vt 0.0300 1.0000
vt 0.1700 0.9700
vt 0.3100 0.9700
vt 0.3100 1.0000
vt 0.1700 1.0000
vt 0.0000 0.9300
vt 0.0000 0.9700
vt 0.0200 0.9000
vt 0.0300 0.9000
vt 0.0300 0.9800
vt 0.0200 0.9800
vt 0.0500 0.9000
vt 0.0600 0.9000
vt 0.0600 0.9800
vt 0.0500 0.9800
vt 0.0300 1.0000
vt 0.0200 1.0000
vt 0.0300 0.9800
vt 0.0400 0.9800
vt 0.0400 1.0000
vt 0.0300 1.0000
vt 0.0000 0.9000
vt 0.0000 0.9800
vt 0.0200 0.9000
vt 0.0300 0.9000
vt 0.0300 0.9800
vt 0.0200 0.9800
vt 0.0500 0.9000
vt 0.0600 0.9000
vt 0.0600 0.9800
vt 0.0500 0.9800
vt 0.0300 1.0000
vt 0.0200 1.0000
vt 0.0300 0.9800
vt 0.0400 0.9800
vt 0.0400 1.0000
vt 0.0300 1.0000
vt 0.0000 0.9000
vt 0.0000 0.9800
vt 0.3400 0.1800
vt 0.3900 0.1800
vt 0.3900 0.2400
vt 0.3400 0.2400
vt 0.4000 0.1800
vt 0.4500 0.1800
vt 0.4500 0.2400
vt 0.4000 0.2400
vt 0.3900 0.2500
vt 0.3400 0.2500
vt 0.3900 0.2400
vt 0.4400 0.2400
vt 0.4400 0.2500
vt 0.3900 0.2500
vt 0.3300 0.1800
vt 0.3300 0.2400
vt 0.5600 0.0000
vt 0.7000 0.0000
vt 0.7000 0.1600
vt 0.5600 0.1600
vt 0.8600 0.0000
vt 1.0000 0.0000
vt 1.0000 0.1600
vt 0.8600 0.1600
vt 0.7000 0.3200
vt 0.5600 0.3200
vt 0.7000 0.1600
vt 0.8400 0.1600
vt 0.8400 0.3200
vt 0.7000 0.3200
vt 0.4000 0.0000
vt 0.4000 0.1600
vt 0.0100 0.9800
vt 0.0200 0.9800
vt 0.0200 0.9900
vt 0.0100 0.9900
vt 0.0300 0.9800
vt 0.0400 0.9800
vt 0.0400 0.9900
vt 0.0300 0.9900
vt 0.0200 1.0000
vt 0.0100 1.0000
vt 0.0200 0.9900
vt 0.0300 0.9900
vt 0.0300 1.0000
vt 0.0200 1.0000
vt 0.0000 0.9800
vt 0.0000 0.9900
vt 0.0100 0.8600
vt 0.1500 0.8600
vt 0.1500 0.9900
vt 0.0100 0.9900
vt 0.1600 0.8600
vt 0.3000 0.8600
vt 0.3000 0.9900
vt 0.1600 0.9900
vt 0.1500 1.0000
vt 0.0100 1.0000
vt 0.1500 0.9900
vt 0.2900 0.9900
vt 0.2900 1.0000
vt 0.1500 1.0000
vt 0.0000 0.8600
vt 0.0000 0.9900
vt 0.1300 0.8500
vt 0.2500 0.8500
vt 0.2500 0.8700
vt 0.1300 0.8700
vt 0.3800 0.8500
vt 0.5000 0.8500
vt 0.5000 0.8700
vt 0.3800 0.8700
vt 0.2500 1.0000
vt 0.1300 1.0000
vt 0.2500 0.8700
vt 0.3700 0.8700
vt 0.3700 1.0000
vt 0.2500 1.0000
vt 0.0000 0.8500
vt 0.0000 0.8700
vt 0.1300 0.8500
vt 0.2500 0.8500
vt 0.2500 0.8700
vt 0.1300 0.8700
vt 0.3800 0.8500
vt 0.5000 0.8500
vt 0.5000 0.8700
vt 0.3800 0.8700
vt 0.2500 1.0000
vt 0.1300 1.0000
vt 0.2500 0.8700
vt 0.3700 0.8700
vt 0.3700 1.0000
vt 0.2500 1.0000
vt 0.0000 0.8500
vt 0.0000 0.8700
vt 0.3000 0.3000
vt 0.3900 0.3000
vt 0.3900 0.4000
vt 0.3000 0.4000
vt 0.4200 0.3000
vt 0.5100 0.3000
vt 0.5100 0.4000
vt 0.4200 0.4000
vt 0.3900 0.4300
vt 0.3000 0.4300
vt 0.3900 0.4000
vt 0.4800 0.4000
vt 0.4800 0.4300
vt 0.3900 0.4300
vt 0.2700 0.3000
vt 0.2700 0.4000
vn 0.0000 -0.4802 -0.8771
vn 0.0000 0.4802 0.8771
vn 0.0000 0.8771 -0.4802
vn 0.0000 -0.8771 0.4802
vn 1.0000 0.0000 0.0000
vn -1.0000 -0.0000 0.0000
vn 0.0000 0.1810 -0.9835
vn 0.0000 -0.1810 0.9835
vn 0.0000 0.9835 0.1810
vn 0.0000 -0.9835 -0.1810
vn 0.0000 -0.9422 0.3350
vn 0.0000 0.0000 -1.0000
vn 0.0000 -0.0000 1.0000
vn 0.0000 1.0000 0.0000
vn 0.0000 -1.0000 0.0000
vn 0.0000 0.2936 -0.9559
vn 0.0000 -0.2698 0.9629
vn 0.0000 0.9600 0.2800
vn 0.0000 -0.9629 -0.2698
vn 0.0000 0.5195 -0.8545
vn 0.0000 -0.5195 0.8545
vn 0.0000 0.8545 0.5195
vn 0.0000 -0.8545 -0.5195
vn 0.0000 0.2926 -0.9562
vn 0.0000 0.9568 0.2906
vn 0.0000 0.6311 -0.7757
vn 0.0000 -0.6311 0.7757
vn 0.0000 0.7757 0.6311
vn 0.0000 -0.7757 -0.6311
vn 0.0000 0.3927 -0.9197
vn 0.0000 -0.3927 0.9197
vn 0.0000 0.9197 0.3927
vn 0.0000 -0.9197 -0.3927
vn 0.0000 0.9422 -0.3350
vn 0.0000 0.3350 0.9422
vn 0.0000 -0.3350 -0.9422
usemtl all
s off
f 1/1/1 2/2/1 3/3/1 4/4/1
f 5/5/2 6/6/2 7/7/2 8/8/2
f 4/4/3 3/3/3 8/9/3 7/10/3
f 6/11/4 5/12/4 2/13/4 1/14/4
f 6/15/5 1/1/5 4/4/5 7/16/5
f 2/2/6 5/5/6 8/8/6 3/3/6
f 9/17/1 10/18/1 11/19/1 12/20/1
f 13/21/2 14/22/2 15/23/2 16/24/2
f 12/20/3 11/19/3 16/25/3 15/26/3
f 14/27/4 13/28/4 10/29/4 9/30/4
f 14/31/5 9/17/5 12/20/5 15/32/5
f 10/18/6 13/21/6 16/24/6 11/19/6
f 17/33/7 18/34/7 19/35/7 20/36/7
f 21/37/8 22/38/8 23/39/8 24/40/8
f 20/36/9 19/35/9 24/41/9 23/42/9
f 22/43/10 21/44/10 18/45/10 17/46/10
f 22/47/5 17/33/5 20/36/5 23/48/5
f 18/34/6 21/37/6 24/40/6 19/35/6
f 25/49/7 26/50/7 27/51/7 28/52/7
f 29/53/8 30/54/8 31/55/8 32/56/8
f 28/52/9 27/51/9 32/57/9 31/58/9
f 30/59/10 29/60/10 26/61/10 25/62/10
f 30/63/5 25/49/5 28/52/5 31/64/5
f 26/50/6 29/53/6 32/56/6 27/51/6
f 34/65/2 33/66/2 36/67/2 35/68/2
f 38/69/11 37/70/11 40/71/11 39/72/11
f 41/73/12 42/74/12 43/75/12 44/76/12
f 45/77/13 46/78/13 47/79/13 48/80/13
f 44/76/14 43/75/14 48/81/14 47/82/14
f 46/83/15 45/84/15 42/85/15 41/86/15
f 46/87/5 41/73/5 44/76/5 47/88/5
f 42/74/6 45/77/6 48/80/6 43/75/6
f 49/89/16 50/90/16 51/91/16 52/92/16
f 53/93/17 54/94/17 55/95/17 56/96/17
f 52/92/18 51/91/18 56/97/18 55/98/18
f 54/99/19 53/100/19 50/101/19 49/102/19
f 54/103/5 49/89/5 52/92/5 55/104/5
f 50/90/6 53/93/6 56/96/6 51/91/6
f 57/105/20 58/106/20 59/107/20 60/108/20
f 61/109/21 62/110/21 63/111/21 64/112/21
f 60/108/22 59/107/22 64/113/22 63/114/22
f 62/115/23 61/116/23 58/117/23 57/118/23
f 62/119/5 57/105/5 60/108/5 63/120/5
f 58/106/6 61/109/6 64/112/6 59/107/6
f 65/121/12 66/122/12 67/123/12 68/124/12
f 69/125/13 70/126/13 71/127/13 72/128/13
f 68/124/14 67/123/14 72/129/14 71/130/14
f 70/131/15 69/132/15 66/133/15 65/134/15
f 70/135/5 65/121/5 68/124/5 71/136/5
f 66/122/6 69/125/6 72/128/6 67/123/6
f 73/137/12 74/138/12 75/139/12 76/140/12
f 77/141/13 78/142/13 79/143/13 80/144/13
f 76/140/14 75/139/14 80/145/14 79/146/14
f 78/147/15 77/148/15 74/149/15 73/150/15
f 78/151/5 73/137/5 76/140/5 79/152/5
f 74/138/6 77/141/6 80/144/6 75/139/6
f 81/153/24 82/154/24 83/155/24 84/156/24
f 85/157/17 86/158/17 87/159/17 88/160/17
f 84/156/25 83/155/25 88/161/25 87/162/25
f 86/163/19 85/164/19 82/165/19 81/166/19
f 86/167/5 81/153/5 84/156/5 87/168/5
f 82/154/6 85/157/6 88/160/6 83/155/6
f 89/169/20 90/170/20 91/171/20 92/172/20
f 93/173/21 94/174/21 95/175/21 96/176/21
f 92/172/22 91/171/22 96/177/22 95/178/22
f 94/179/23 93/180/23 90/181/23 89/182/23
f 94/183/5 89/169/5 92/172/5 95/184/5
f 90/170/6 93/173/6 96/176/6 91/171/6
f 97/185/12 98/186/12 99/187/12 100/188/12
f 101/189/13 102/190/13 103/191/13 104/192/13
f 100/188/14 99/187/14 104/193/14 103/194/14
f 102/195/15 101/196/15 98/197/15 97/198/15
f 102/199/5 97/185/5 100/188/5 103/200/5
f 98/186/6 101/189/6 104/192/6 99/187/6
f 105/201/2 106/202/2 107/203/2 108/204/2
f 109/205/1 110/206/1 111/207/1 112/208/1
f 108/204/4 107/203/4 112/209/4 111/210/4
f 110/211/3 109/212/3 106/213/3 105/214/3
f 110/215/5 105/201/5 108/204/5 111/216/5
f 106/202/6 109/205/6 112/208/6 107/203/6
f 113/217/2 114/218/2 115/219/2 116/220/2
f 117/221/1 118/222/1 119/223/1 120/224/1
f 116/220/4 115/219/4 120/225/4 119/226/4
f 118/227/3 117/228/3 114/229/3 113/230/3
f 118/231/5 113/217/5 116/220/5 119/232/5
f 114/218/6 117/221/6 120/224/6 115/219/6
f 121/233/12 122/234/12 123/235/12 124/236/12
f 125/237/13 126/238/13 127/239/13 128/240/13
f 124/236/14 123/235/14 128/241/14 127/242/14
f 126/243/15 125/244/15 122/245/15 121/246/15
f 126/247/5 121/233/5 124/236/5 127/248/5
f 122/234/6 125/237/6 128/240/6 123/235/6
f 129/249/1 130/250/1 131/251/1 132/252/1
f 133/253/2 134/254/2 135/255/2 136/256/2
f 132/252/3 131/251/3 136/257/3 135/258/3
f 134/259/4 133/260/4 130/261/4 129/262/4
f 134/263/5 129/249/5 132/252/5 135/264/5
f 130/250/6 133/253/6 136/256/6 131/251/6
f 137/265/26 138/266/26 139/267/26 140/268/26
f 141/269/27 142/270/27 143/271/27 144/272/27
f 140/268/28 139/267/28 144/273/28 143/274/28
f 142/275/29 141/276/29 138/277/29 137/278/29
f 142/279/5 137/265/5 140/268/5 143/280/5
f 138/266/6 141/269/6 144/272/6 139/267/6
f 145/281/26 146/282/26 147/283/26 148/284/26
f 149/285/27 150/286/27 151/287/27 152/288/27
f 148/284/28 147/283/28 152/289/28 151/290/28
f 150/291/29 149/292/29 146/293/29 145/294/29
f 150/295/5 145/281/5 148/284/5 151/296/5
f 146/282/6 149/285/6 152/288/6 147/283/6
f 153/297/12 154/298/12 155/299/12 156/300/12
f 157/301/13 158/302/13 159/303/13 160/304/13
f 156/300/14 155/299/14 160/305/14 159/306/14
f 158/307/15 157/308/15 154/309/15 153/310/15
f 158/311/5 153/297/5 156/300/5 159/312/5
f 154/298/6 157/301/6 160/304/6 155/299/6
f 161/313/12 162/314/12 163/315/12 164/316/12
f 165/317/13 166/318/13 167/319/13 168/320/13
f 164/316/14 163/315/14 168/321/14 167/322/14
f 166/323/15 165/324/15 162/325/15 161/326/15
f 166/327/5 161/313/5 164/316/5 167/328/5
f 162/314/6 165/317/6 168/320/6 163/315/6
f 169/329/1 170/330/1 171/331/1 172/332/1
f 173/333/2 174/334/2 175/335/2 176/336/2
f 172/332/3 171/331/3 176/337/3 175/338/3
f 174/339/4 173/340/4 170/341/4 169/342/4
f 174/343/5 169/329/5 172/332/5 175/344/5
f 170/330/6 173/333/6 176/336/6 171/331/6
f 177/345/12 178/346/12 179/347/12 180/348/12
f 181/349/13 182/350/13 183/351/13 184/352/13
f 180/348/14 179/347/14 184/353/14 183/354/14
f 182/355/15 181/356/15 178/357/15 177/358/15
f 182/359/5 177/345/5 180/348/5 183/360/5
f 178/346/6 181/349/6 184/352/6 179/347/6
f 185/361/30 186/362/30 187/363/30 188/364/30
f 189/365/31 190/366/31 191/367/31 192/368/31
f 188/364/32 187/363/32 192/369/32 191/370/32
f 190/371/33 189/372/33 186/373/33 185/374/33
f 190/375/5 185/361/5 188/364/5 191/376/5
f 186/362/6 189/365/6 192/368/6 187/363/6
f 193/377/31 194/378/31 195/379/31 196/380/31
f 197/381/30 198/382/30 199/383/30 200/384/30
f 196/380/32 195/379/32 200/385/32 199/386/32
f 198/387/33 197/388/33 194/389/33 193/390/33
f 198/391/6 193/377/6 196/380/6 199/392/6
f 194/378/5 197/381/5 200/384/5 195/379/5
f 201/393/34 202/394/34 203/395/34 204/396/34
f 205/397/11 206/398/11 207/399/11 208/400/11
f 204/396/35 203/395/35 208/401/35 207/402/35
f 206/403/36 205/404/36 202/405/36 201/406/36
f 206/407/5 201/393/5 204/396/5 207/408/5
f 202/394/6 205/397/6 208/400/6 203/395/6
