# Blender v2.78 (sub 0) OBJ File: 'generic_machine.blend'
# www.blender.org
mtllib generic_machine.mtl
o Cube_Cube.001
v 0.953005 0.100000 1.000000
v 0.953005 1.775037 1.000000
v 0.046995 0.100000 1.000000
v 0.046995 1.775037 1.000000
v 0.953005 0.100000 0.514676
v 0.953005 1.950572 0.000000
v 0.046995 0.100000 0.514676
v 0.046995 1.950572 0.000000
v 0.953005 1.000000 1.000000
v 0.046995 1.000000 1.000000
v 0.046995 1.010825 0.076508
v 0.953005 1.010825 0.076508
v 0.046995 0.800000 1.000000
v 0.046995 0.786880 0.076508
v 0.953005 0.786880 0.076508
v 0.953005 0.800000 1.000000
v 0.046995 0.730000 1.000000
v 0.046995 0.716880 0.321695
v 0.953005 0.716880 0.321695
v 0.953005 0.730000 1.000000
v 0.953005 1.050000 1.000000
v 0.046995 1.050000 1.000000
v 0.046995 1.118374 0.271464
v 0.953005 1.118374 0.271464
v 0.953005 1.762500 1.000000
v 0.046995 1.762500 1.000000
v 0.046995 1.762500 0.000000
v 0.953005 1.762500 0.000000
v 0.046995 1.726875 1.000000
v 0.046995 1.726875 0.471916
v 0.953005 1.726875 0.471917
v 0.953005 1.726875 1.000000
v 0.046995 0.100000 0.920417
v 0.046995 1.950572 0.699001
v 0.953005 0.100000 0.920417
v 0.953005 1.950572 0.699001
v 0.953005 1.000000 0.750000
v 0.046995 1.000000 0.750000
v 0.046995 0.800000 0.750000
v 0.953005 0.800000 0.750000
v 0.953005 0.730000 0.872171
v 0.046995 0.730000 0.872171
v 0.953005 1.063985 0.808915
v 0.046995 1.063985 0.808915
v 0.953005 1.762500 0.750000
v 0.046995 1.762500 0.750000
v 0.046995 1.726875 0.833550
v 0.953005 1.726875 0.833550
v 0.046995 0.000000 1.000000
v 0.953005 0.000000 1.000000
v 0.046995 0.000000 0.920417
v 0.953005 0.000000 0.681666
v 0.046995 0.000000 0.681666
v 0.953005 0.000000 0.920417
v 0.953005 0.100000 0.081666
v 0.046995 0.100000 0.081666
v 0.953005 0.000000 0.081666
v 0.046995 0.000000 0.081666
v 0.700000 0.100000 0.728394
v 0.700000 0.800000 0.728394
v 0.300000 0.100000 0.728394
v 0.300000 0.800000 0.728394
v 0.700000 0.100000 0.200000
v 0.700000 0.800000 0.200000
v 0.300000 0.100000 0.200000
v 0.300000 0.800000 0.200000
v 0.929816 0.100000 1.000000
v 0.929816 1.775037 1.000000
v 0.929816 0.100000 0.514676
v 0.929816 1.950572 0.000000
v 0.929816 1.010825 0.076508
v 0.929816 1.000000 1.000000
v 0.929816 0.800000 1.000000
v 0.929816 0.786880 0.076508
v 0.929816 0.716880 0.321695
v 0.929816 0.730000 1.000000
v 0.929816 1.118374 0.271464
v 0.929816 1.050000 1.000000
v 0.929816 1.762500 0.000000
v 0.929816 1.762500 1.000000
v 0.929816 1.726875 1.000000
v 0.929816 1.726875 0.471917
v 0.929816 1.950572 0.699001
v 0.929816 0.000000 1.000000
v 0.929816 0.000000 0.681666
v 0.929816 0.000000 0.920417
v 0.929816 0.100000 0.081666
v 0.929816 0.000000 0.081666
v 0.069355 1.775037 1.000000
v 0.069355 0.100000 0.514676
v 0.069355 1.000000 1.000000
v 0.069355 0.800000 1.000000
v 0.069355 0.730000 1.000000
v 0.069355 1.050000 1.000000
v 0.069355 1.762500 1.000000
v 0.069355 1.726875 1.000000
v 0.069355 0.000000 0.681666
v 0.069356 0.100000 0.081666
v 0.069356 0.000000 0.081666
v 0.069355 0.100000 1.000000
v 0.069356 1.950572 0.000000
v 0.069356 1.010825 0.076508
v 0.069356 0.786880 0.076508
v 0.069355 0.716880 0.321695
v 0.069355 1.118374 0.271464
v 0.069356 1.762500 0.000000
v 0.069355 1.726875 0.471916
v 0.069355 1.950572 0.699001
v 0.069355 0.000000 1.000000
v 0.069355 0.000000 0.920417
v 0.069356 1.000000 0.099793
v 0.929816 1.000000 0.099793
v 0.069356 0.800000 0.099793
v 0.929816 0.800000 0.099793
v 0.069355 0.730000 0.511971
v 0.929816 0.730000 0.511971
v 0.069355 1.107549 0.294749
v 0.929816 1.107549 0.294749
v 0.069356 1.762500 0.023285
v 0.929816 1.762500 0.023286
v 0.069355 1.726875 0.495202
v 0.929816 1.726875 0.495202
v 0.929816 0.100000 0.704952
v 0.069355 0.100000 0.704952
v 0.069356 1.792724 0.025567
v 0.929816 1.792724 0.025567
v 0.069355 1.757099 0.497484
v 0.929816 1.757099 0.497484
v 0.929816 1.950572 -0.019462
v 0.953005 1.950572 -0.019462
v 0.046995 1.950572 -0.019462
v 0.046995 1.762500 -0.019462
v 0.953005 1.762500 -0.019462
v 0.929816 1.762500 -0.019462
v 0.069356 1.950572 -0.019462
v 0.069356 1.762500 -0.019462
v 0.069355 1.794594 1.000000
v 0.046995 1.794594 1.000000
v 0.046995 1.970129 0.699001
v 0.046995 1.970129 0.000000
v 0.929816 1.970129 0.000000
v 0.953005 1.970129 0.000000
v 0.953005 1.970129 0.699001
v 0.953005 1.794594 1.000000
v 0.929816 1.970129 0.699001
v 0.929816 1.794594 1.000000
v 0.069356 1.970129 0.000000
v 0.069355 1.970129 0.699001
v 0.929816 1.970129 -0.019462
v 0.953005 1.970129 -0.019462
v 0.046995 1.970129 -0.019462
v 0.069356 1.970129 -0.019462
v 0.214253 1.211840 0.328505
v 0.784919 1.211840 0.328505
v 0.214253 1.622584 0.461447
v 0.784919 1.622584 0.461447
v 0.214253 1.205946 0.346715
v 0.784919 1.205946 0.346715
v 0.214253 1.616690 0.479657
v 0.784919 1.616690 0.479657
vt 0.4163 0.7561
vt 0.4220 0.7561
vt 0.4220 0.7610
vt 0.4163 0.7610
vt 0.9809 0.1758
vt 0.9809 0.3544
vt 0.8789 0.3544
vt 0.8789 0.1758
vt 0.7431 0.3554
vt 0.8778 0.3554
vt 0.8778 0.4574
vt 0.7431 0.4574
vt 0.8574 0.9456
vt 0.7227 0.9456
vt 0.7227 0.8436
vt 0.8574 0.8436
vt 0.8126 0.4664
vt 0.7556 0.4664
vt 0.7431 0.4654
vt 0.8001 0.4654
vt 0.7459 0.4679
vt 0.8029 0.4679
vt 0.8001 0.4689
vt 0.7431 0.4689
vt 0.7100 0.0322
vt 0.7057 0.1424
vt 0.5646 0.1431
vt 0.5689 0.0330
vt 0.7520 0.0005
vt 0.7459 0.1748
vt 0.7118 0.1469
vt 0.7148 0.0261
vt 0.5598 0.1492
vt 0.5628 0.0285
vt 0.5227 0.1748
vt 0.5287 0.0005
vt 0.1967 0.4500
vt 0.1837 0.4979
vt 0.0055 0.4979
vt 0.0055 0.4499
vt 0.1968 0.2045
vt 0.1968 0.2555
vt 0.0251 0.2582
vt 0.0251 0.2011
vt 0.2280 0.1867
vt 0.0876 0.1833
vt 0.2404 0.0260
vt 0.1369 0.0260
vt 0.2118 0.2718
vt 0.0748 0.2857
vt 0.2181 0.4409
vt 0.1258 0.4409
vt 0.2606 0.2683
vt 0.2605 0.4409
vt 0.2605 0.4500
vt 0.2606 0.2555
vt 0.2606 0.0260
vt 0.2606 0.1867
vt 0.2606 0.2045
vt 0.2605 0.4532
vt 0.2605 0.4582
vt 0.1837 0.5029
vt 0.1795 0.0005
vt 0.2404 0.0005
vt 0.2607 0.0005
vt 0.6767 0.5023
vt 0.7193 0.4768
vt 0.8297 0.4768
vt 0.8297 0.5023
vt 0.0005 0.4979
vt 0.0005 0.4499
vt 0.0055 0.5028
vt 0.0005 0.5028
vt 0.3254 0.4500
vt 0.3384 0.4979
vt 0.2617 0.4532
vt 0.2617 0.4500
vt 0.2820 0.0260
vt 0.2617 0.0260
vt 0.2617 0.0005
vt 0.2820 0.0005
vt 0.3254 0.2045
vt 0.3254 0.2555
vt 0.2617 0.2555
vt 0.2617 0.2045
vt 0.2943 0.1867
vt 0.2617 0.1867
vt 0.3104 0.2718
vt 0.2617 0.2683
vt 0.3041 0.4409
vt 0.2617 0.4409
vt 0.4475 0.2857
vt 0.3963 0.4409
vt 0.5167 0.4500
vt 0.4972 0.2583
vt 0.3854 0.0260
vt 0.4346 0.1833
vt 0.4972 0.2012
vt 0.5167 0.4979
vt 0.5652 0.5023
vt 0.5227 0.4768
vt 0.6757 0.4768
vt 0.6757 0.5023
vt 0.3428 0.0005
vt 0.5216 0.4500
vt 0.5216 0.4979
vt 0.5216 0.5029
vt 0.5167 0.5029
vt 0.3384 0.5029
vt 0.2617 0.4581
vt 0.2199 0.9045
vt 0.2199 0.9613
vt 0.0005 0.9613
vt 0.0005 0.9045
vt 0.6752 0.7360
vt 0.6752 0.8426
vt 0.4558 0.8426
vt 0.4558 0.7360
vt 0.4404 0.9150
vt 0.4404 0.9660
vt 0.2209 0.9660
vt 0.2209 0.9150
vt 0.2199 0.7355
vt 0.2199 0.9035
vt 0.0005 0.9035
vt 0.0005 0.7355
vt 0.7421 0.3551
vt 0.7421 0.4758
vt 0.5227 0.4758
vt 0.5227 0.3551
vt 0.6762 0.8259
vt 0.8957 0.8259
vt 0.8957 0.8336
vt 0.6762 0.8336
vt 0.7421 0.1758
vt 0.7421 0.3541
vt 0.5227 0.3541
vt 0.5227 0.1758
vt 0.8957 0.7360
vt 0.8957 0.8248
vt 0.6762 0.8248
vt 0.6762 0.7360
vt 0.6752 0.9515
vt 0.6752 0.9995
vt 0.4558 0.9995
vt 0.4558 0.9515
vt 0.9625 0.4644
vt 0.7431 0.4643
vt 0.7431 0.4584
vt 0.9625 0.4585
vt 0.8957 0.8423
vt 0.6762 0.8423
vt 0.6762 0.8346
vt 0.8957 0.8346
vt 0.4510 0.7278
vt 0.4546 0.7278
vt 0.4545 0.7340
vt 0.4510 0.7339
vt 0.2041 0.7288
vt 0.2550 0.7288
vt 0.2550 0.7345
vt 0.2041 0.7345
vt 0.1863 0.7288
vt 0.1863 0.7345
vt 0.0260 0.7288
vt 0.0260 0.7345
vt 0.2678 0.7287
vt 0.2678 0.7345
vt 0.4417 0.7279
vt 0.4417 0.7338
vt 0.0005 0.7345
vt 0.0005 0.7288
vt 0.0260 0.5039
vt 0.0260 0.5098
vt 0.0005 0.5098
vt 0.0005 0.5039
vt 0.2678 0.5040
vt 0.4419 0.5045
vt 0.4419 0.5105
vt 0.2678 0.5099
vt 0.4513 0.5043
vt 0.4512 0.5106
vt 0.2551 0.5040
vt 0.2551 0.5099
vt 0.1863 0.5040
vt 0.1863 0.5099
vt 0.2041 0.5040
vt 0.2041 0.5099
vt 0.4547 0.5043
vt 0.4548 0.5106
vt 0.4761 0.7291
vt 0.5370 0.7291
vt 0.5370 0.7350
vt 0.4761 0.7350
vt 0.4558 0.7291
vt 0.4558 0.7350
vt 0.7155 0.7291
vt 0.7155 0.7350
vt 0.6900 0.7350
vt 0.6900 0.7291
vt 0.8259 0.7291
vt 0.8259 0.7350
vt 0.5370 0.5096
vt 0.5370 0.5039
vt 0.6900 0.5039
vt 0.6900 0.5096
vt 0.8259 0.5096
vt 0.7155 0.5096
vt 0.4558 0.5096
vt 0.4761 0.5096
vt 0.7227 0.9466
vt 0.9421 0.9466
vt 0.9421 0.9951
vt 0.7227 0.9951
vt 0.4761 0.5039
vt 0.4558 0.5039
vt 0.7155 0.5039
vt 0.8259 0.5039
vt 0.7165 0.9455
vt 0.7215 0.9455
vt 0.7215 0.9505
vt 0.7165 0.9505
vt 0.3761 0.7491
vt 0.3761 0.8062
vt 0.3701 0.8062
vt 0.3701 0.7491
vt 0.3701 0.7355
vt 0.4352 0.7355
vt 0.4352 0.7414
vt 0.3701 0.7414
vt 0.8868 0.0088
vt 0.8868 0.1737
vt 0.8809 0.1737
vt 0.8809 0.0088
vt 0.4338 0.7551
vt 0.3771 0.7551
vt 0.3771 0.7491
vt 0.4338 0.7491
vt 0.8269 0.7134
vt 0.9476 0.7134
vt 0.9476 0.7193
vt 0.8269 0.7193
vt 0.8938 0.0088
vt 0.8938 0.1722
vt 0.8879 0.1722
vt 0.8879 0.0088
vt 0.4431 0.7926
vt 0.4431 0.7355
vt 0.4491 0.7388
vt 0.4491 0.7898
vt 0.8742 0.6834
vt 0.9388 0.6906
vt 0.9335 0.6949
vt 0.8269 0.6949
vt 0.4421 0.7355
vt 0.4421 0.7926
vt 0.4362 0.7898
vt 0.4362 0.7388
vt 0.8649 0.1677
vt 0.8003 0.1748
vt 0.7530 0.1634
vt 0.8596 0.1634
vt 0.4036 0.7561
vt 0.4093 0.7561
vt 0.4093 0.7611
vt 0.4036 0.7611
vt 0.3828 0.7561
vt 0.3828 0.8132
vt 0.3771 0.8132
vt 0.3771 0.7561
vt 0.3701 0.7424
vt 0.4352 0.7424
vt 0.4352 0.7481
vt 0.3701 0.7481
vt 0.3624 0.7355
vt 0.3624 0.9003
vt 0.3567 0.9003
vt 0.3567 0.7355
vt 0.4452 0.8119
vt 0.3884 0.8119
vt 0.3884 0.8062
vt 0.4452 0.8062
vt 0.8269 0.7293
vt 0.9476 0.7293
vt 0.9476 0.7350
vt 0.8269 0.7350
vt 0.3691 0.7355
vt 0.3691 0.8989
vt 0.3634 0.8989
vt 0.3634 0.7355
vt 0.4617 0.8934
vt 0.4558 0.8934
vt 0.4558 0.8884
vt 0.4617 0.8884
vt 0.8269 0.6959
vt 0.9476 0.6959
vt 0.9476 0.7036
vt 0.8269 0.7036
vt 0.8015 0.0005
vt 0.8507 0.1578
vt 0.8022 0.1612
vt 0.7530 0.0005
vt 0.3923 0.7936
vt 0.4491 0.7936
vt 0.4452 0.7989
vt 0.3884 0.7989
vt 0.4491 0.8052
vt 0.3923 0.8052
vt 0.3884 0.7999
vt 0.4452 0.7999
vt 0.8724 0.0096
vt 0.8716 0.1730
vt 0.8659 0.1748
vt 0.8659 0.0088
vt 0.8967 0.9150
vt 0.8977 0.7502
vt 0.9440 0.7360
vt 0.9440 0.9040
vt 0.8743 0.1730
vt 0.8734 0.0096
vt 0.8799 0.0088
vt 0.8799 0.1748
vt 0.9476 0.7124
vt 0.8269 0.7124
vt 0.8269 0.7046
vt 0.9476 0.7046
vt 0.4521 0.8062
vt 0.4521 0.8542
vt 0.4462 0.8542
vt 0.4462 0.8062
vt 0.3758 0.8073
vt 0.3758 0.8552
vt 0.3701 0.8552
vt 0.3701 0.8073
vt 0.3967 0.7561
vt 0.4026 0.7561
vt 0.4026 0.7610
vt 0.3967 0.7610
vt 0.7165 0.8976
vt 0.7215 0.8976
vt 0.7167 0.8966
vt 0.7167 0.8486
vt 0.7217 0.8486
vt 0.7217 0.8966
vt 0.4615 0.9008
vt 0.5383 0.9455
vt 0.5383 0.9505
vt 0.4615 0.9058
vt 0.4523 0.9058
vt 0.3634 0.9058
vt 0.3634 0.8999
vt 0.4523 0.8999
vt 0.9213 0.4758
vt 0.7431 0.4758
vt 0.7431 0.4699
vt 0.9213 0.4699
vt 0.4523 0.9125
vt 0.3634 0.9125
vt 0.3634 0.9068
vt 0.4523 0.9068
vt 0.1788 0.9680
vt 0.0005 0.9680
vt 0.0005 0.9623
vt 0.1788 0.9623
vt 0.3957 0.7561
vt 0.3957 0.7620
vt 0.3907 0.7620
vt 0.3907 0.7561
vt 0.4153 0.7561
vt 0.4153 0.7618
vt 0.4103 0.7618
vt 0.4103 0.7561
vt 0.4558 0.9008
vt 0.4558 0.9058
vt 0.5385 0.8486
vt 0.5385 0.8436
vt 0.3838 0.7561
vt 0.3897 0.7561
vt 0.3897 0.7611
vt 0.3838 0.7611
vt 0.7167 0.8436
vt 0.7217 0.8436
vt 0.3557 0.7355
vt 0.3557 0.9140
vt 0.2209 0.9140
vt 0.2209 0.7355
vt 0.9289 0.5039
vt 0.9289 0.6824
vt 0.8269 0.6824
vt 0.8269 0.5039
vt 0.8778 0.1758
vt 0.8778 0.3544
vt 0.7431 0.3544
vt 0.7431 0.1758
vn 0.0000 -1.0000 0.0000
vn -0.0000 0.0000 1.0000
vn 0.0000 1.0000 0.0000
vn -1.0000 0.0000 0.0000
vn 1.0000 0.0000 0.0000
vn 0.0000 0.3079 -0.9514
vn 0.0000 0.9514 0.3079
vn 0.0000 -0.9514 -0.3079
vn 0.0000 0.8756 -0.4830
vn 0.0000 -0.9859 -0.1674
vn 0.0000 0.0000 -1.0000
vn 0.0000 -0.2929 -0.9561
vn 0.0000 -0.9972 -0.0753
vn 0.0000 0.0753 -0.9972
vn 0.0000 0.8638 0.5038
vn -0.0000 -0.0753 0.9972
vn 0.0000 -0.9616 -0.2745
vn 0.0000 -0.2986 -0.9544
vn 0.0000 0.3129 -0.9498
usemtl Screen
s off
f 106/1/1 27/2/1 132/3/1 136/4/1
f 59/5/2 60/6/2 62/7/2 61/8/2
f 61/9/1 65/10/1 63/11/1 59/12/1
f 66/13/3 62/14/3 60/15/3 64/16/3
f 79/17/4 82/18/4 122/19/4 120/20/4
f 107/21/5 106/22/5 119/23/5 121/24/5
f 157/25/6 159/26/6 160/27/6 158/28/6
usemtl ScreenBorder
f 117/29/6 121/30/6 155/31/6 153/32/6
f 156/33/4 154/34/4 158/28/4 160/27/4
f 121/30/6 122/35/6 156/33/6 155/31/6
f 118/36/6 117/29/6 153/32/6 154/34/6
f 122/35/6 118/36/6 154/34/6 156/33/6
f 154/34/7 153/32/7 157/25/7 158/28/7
f 153/32/5 155/31/5 159/26/5 157/25/5
f 155/31/8 156/33/8 160/27/8 159/26/8
usemtl RightSide
f 46/37/4 34/38/4 8/39/4 27/40/4
f 39/41/4 38/42/4 11/43/4 14/44/4
f 42/45/4 39/41/4 14/44/4 18/46/4
f 33/47/4 42/45/4 18/46/4 7/48/4
f 38/42/4 44/49/4 23/50/4 11/43/4
f 47/51/4 46/37/4 27/40/4 30/52/4
f 44/49/4 47/51/4 30/52/4 23/50/4
f 22/53/4 29/54/4 47/51/4 44/49/4
f 29/54/4 26/55/4 46/37/4 47/51/4
f 10/56/4 22/53/4 44/49/4 38/42/4
f 3/57/4 17/58/4 42/45/4 33/47/4
f 17/58/4 13/59/4 39/41/4 42/45/4
f 13/59/4 10/56/4 38/42/4 39/41/4
f 34/38/4 4/60/4 138/61/4 139/62/4
f 26/55/4 4/60/4 34/38/4 46/37/4
f 33/47/4 7/48/4 53/63/4 51/64/4
f 3/57/4 33/47/4 51/64/4 49/65/4
f 53/66/4 7/67/4 56/68/4 58/69/4
f 27/40/4 8/39/4 131/70/4 132/71/4
f 131/70/4 8/39/4 140/72/4 151/73/4
f 8/39/4 34/38/4 139/62/4 140/72/4
usemtl LeftSide
f 45/74/5 36/75/5 2/76/5 25/77/5
f 35/78/5 1/79/5 50/80/5 54/81/5
f 40/82/5 37/83/5 9/84/5 16/85/5
f 41/86/5 40/82/5 16/85/5 20/87/5
f 35/78/5 41/86/5 20/87/5 1/79/5
f 37/83/5 43/88/5 21/89/5 9/84/5
f 48/90/5 45/74/5 25/77/5 32/91/5
f 43/88/5 48/90/5 32/91/5 21/89/5
f 24/92/5 31/93/5 48/90/5 43/88/5
f 31/93/5 28/94/5 45/74/5 48/90/5
f 12/95/5 24/92/5 43/88/5 37/83/5
f 5/96/5 19/97/5 41/86/5 35/78/5
f 19/97/5 15/98/5 40/82/5 41/86/5
f 15/98/5 12/95/5 37/83/5 40/82/5
f 28/94/5 6/99/5 36/75/5 45/74/5
f 5/100/5 52/101/5 57/102/5 55/103/5
f 5/96/5 35/78/5 54/81/5 52/104/5
f 6/99/5 28/94/5 133/105/5 130/106/5
f 6/99/5 130/106/5 150/107/5 142/108/5
f 2/76/5 36/75/5 143/109/5 144/110/5
f 36/75/5 6/99/5 142/108/5 143/109/5
usemtl Controller
f 111/111/9 117/112/9 118/113/9 112/114/9
f 115/115/10 113/116/10 114/117/10 116/118/10
f 113/119/11 111/120/11 112/121/11 114/122/11
usemtl Front
f 124/123/12 115/124/12 116/125/12 123/126/12
f 127/127/13 125/128/13 126/129/13 128/130/13
f 122/131/14 121/132/14 127/133/14 128/134/14
usemtl Top
f 101/135/3 108/136/3 83/137/3 70/138/3
f 108/139/15 89/140/15 68/141/15 83/142/15
f 106/143/11 101/144/11 70/145/11 79/146/11
f 106/147/1 79/148/1 120/149/1 119/150/1
f 119/151/16 120/152/16 126/153/16 125/154/16
usemtl Back
f 95/155/2 89/156/2 4/157/2 26/158/2
f 92/159/2 91/160/2 10/161/2 13/162/2
f 93/163/2 92/159/2 13/162/2 17/164/2
f 100/165/2 93/163/2 17/164/2 3/166/2
f 91/160/2 94/167/2 22/168/2 10/161/2
f 96/169/2 95/155/2 26/158/2 29/170/2
f 94/167/2 96/169/2 29/170/2 22/168/2
f 100/165/2 3/166/2 49/171/2 109/172/2
f 1/173/2 67/174/2 84/175/2 50/176/2
f 21/177/2 32/178/2 81/179/2 78/180/2
f 32/178/2 25/181/2 80/182/2 81/179/2
f 9/183/2 21/177/2 78/180/2 72/184/2
f 1/173/2 20/185/2 76/186/2 67/174/2
f 20/185/2 16/187/2 73/188/2 76/186/2
f 16/187/2 9/183/2 72/184/2 73/188/2
f 25/181/2 2/189/2 68/190/2 80/182/2
f 67/174/2 100/165/2 109/172/2 84/175/2
f 78/180/2 81/179/2 96/169/2 94/167/2
f 81/179/2 80/182/2 95/155/2 96/169/2
f 72/184/2 78/180/2 94/167/2 91/160/2
f 67/174/2 76/186/2 93/163/2 100/165/2
f 76/186/2 73/188/2 92/159/2 93/163/2
f 73/188/2 72/184/2 91/160/2 92/159/2
f 80/182/2 68/190/2 89/156/2 95/155/2
usemtl Bottom
f 86/191/1 85/192/1 52/193/1 54/194/1
f 84/195/1 86/191/1 54/194/1 50/196/1
f 87/197/11 55/198/11 57/199/11 88/200/11
f 69/201/3 5/202/3 55/198/3 87/197/3
f 97/203/1 53/204/1 58/205/1 99/206/1
f 52/193/1 85/192/1 88/200/1 57/199/1
f 90/207/3 69/201/3 87/197/3 98/208/3
f 98/208/11 87/197/11 88/200/11 99/206/11
f 109/209/1 110/210/1 86/191/1 84/195/1
f 110/210/1 97/203/1 85/192/1 86/191/1
f 69/211/3 90/212/3 124/213/3 123/214/3
f 51/215/1 53/204/1 97/203/1 110/210/1
f 49/216/1 51/215/1 110/210/1 109/209/1
f 56/217/11 98/208/11 99/206/11 58/205/11
f 7/218/3 90/207/3 98/208/3 56/217/3
f 85/192/1 97/203/1 99/206/1 88/200/1
usemtl Bezel
f 101/219/5 135/220/5 152/221/5 147/222/5
f 74/223/11 71/224/11 12/225/11 15/226/11
f 75/227/17 74/228/17 15/229/17 19/230/17
f 69/231/18 75/232/18 19/233/18 5/234/18
f 71/235/9 77/236/9 24/237/9 12/238/9
f 82/239/13 79/240/13 28/241/13 31/242/13
f 77/243/19 82/244/19 31/245/19 24/246/19
f 71/247/4 74/248/4 114/249/4 112/250/4
f 104/251/5 103/252/5 113/253/5 115/254/5
f 103/255/5 102/256/5 111/257/5 113/258/5
f 74/259/4 75/260/4 116/261/4 114/262/4
f 135/263/11 131/264/11 151/265/11 152/266/11
f 14/267/11 11/268/11 102/269/11 103/270/11
f 18/271/17 14/272/17 103/273/17 104/274/17
f 7/275/18 18/276/18 104/277/18 90/278/18
f 11/279/9 23/280/9 105/281/9 102/282/9
f 30/283/13 27/284/13 106/285/13 107/286/13
f 23/287/19 30/288/19 107/289/19 105/290/19
f 68/291/2 2/292/2 144/293/2 146/294/2
f 121/295/5 119/296/5 125/297/5 127/298/5
f 90/299/5 104/300/5 115/301/5 124/302/5
f 77/303/4 71/304/4 112/305/4 118/306/4
f 102/307/5 105/308/5 117/309/5 111/310/5
f 105/311/5 107/312/5 121/313/5 117/314/5
f 75/315/4 69/316/4 123/317/4 116/318/4
f 82/319/4 77/320/4 118/321/4 122/322/4
f 120/323/4 122/324/4 128/325/4 126/326/4
f 134/327/11 129/328/11 130/329/11 133/330/11
f 132/331/11 131/332/11 135/333/11 136/334/11
f 28/335/1 79/336/1 134/337/1 133/338/1
f 101/219/5 106/339/5 136/340/5 135/220/5
f 79/341/4 70/342/4 129/343/4 134/344/4
f 89/345/5 108/346/5 148/347/5 137/348/5
f 108/346/5 101/219/5 147/222/5 148/347/5
f 145/349/15 146/350/15 144/351/15 143/352/15
f 141/353/3 145/354/3 143/355/3 142/356/3
f 139/357/15 138/358/15 137/359/15 148/360/15
f 140/361/3 139/362/3 148/363/3 147/364/3
f 141/365/3 142/366/3 150/367/3 149/368/3
f 140/369/3 147/370/3 152/371/3 151/372/3
f 4/373/2 89/345/2 137/348/2 138/374/2
f 83/375/4 68/291/4 146/294/4 145/376/4
f 130/377/11 129/378/11 149/379/11 150/380/11
f 129/343/4 70/342/4 141/381/4 149/382/4
f 70/342/4 83/375/4 145/376/4 141/381/4
usemtl Coin
f 61/383/4 62/384/4 66/385/4 65/386/4
f 65/387/11 66/388/11 64/389/11 63/390/11
f 63/391/5 64/392/5 60/393/5 59/394/5
