# Blender v2.78 (sub 0) OBJ File: 'pacman.blend'
# www.blender.org
mtllib pacman.mtl
o Cube
v 0.100000 -0.000000 0.221640
v 0.900000 -0.000000 0.221640
v 0.900000 -0.000000 1.000000
v 0.100000 -0.000000 1.000000
v 0.100001 1.929920 0.324853
v 0.900001 1.929921 0.324854
v 0.900000 1.927396 1.000000
v 0.100000 1.927396 1.000000
v 0.100000 1.000000 0.133340
v 0.900000 1.000000 0.133341
v 0.900000 1.000000 1.000000
v 0.100000 1.000000 1.000000
v 0.100000 0.900000 0.200000
v 0.900000 0.900000 0.200000
v 0.900000 0.900000 1.000000
v 0.100000 0.900000 1.000000
v 0.100000 0.896645 0.221640
v 0.900000 0.896645 0.221640
v 0.900000 0.855000 1.000000
v 0.100000 0.855000 1.000000
v 0.100001 1.750000 0.322521
v 0.900001 1.750000 0.322523
v 0.900000 1.750000 1.000000
v 0.100000 1.750000 1.000000
v 0.100000 1.366879 0.812461
v 0.900001 1.366879 0.812462
v 0.900000 1.712500 1.000000
v 0.100000 1.712500 1.000000
v 0.079657 -0.000000 0.200000
v 0.079656 -0.000000 1.000000
v 0.079658 1.750000 0.322521
v 0.079658 1.929920 0.324853
v 0.920343 -0.000000 0.200000
v 0.920343 -0.000000 1.000000
v 0.920344 1.750000 0.322523
v 0.920344 1.929921 0.324854
v 0.920343 1.750000 1.000000
v 0.920343 1.927396 1.000001
v 0.079657 1.750000 1.000000
v 0.079657 1.927396 1.000000
v 0.079657 0.900000 0.200000
v 0.079657 1.000000 0.200000
v 0.920343 0.900000 0.200000
v 0.920343 1.000000 0.200001
v 0.920343 0.900000 1.000000
v 0.920343 1.000000 1.000000
v 0.079657 0.900000 1.000000
v 0.079657 1.000000 1.000000
v 0.079657 0.855000 0.200000
v 0.920343 0.855000 0.200000
v 0.920343 0.855000 1.000000
v 0.079657 0.855000 1.000000
v 0.079658 1.712500 0.322521
v 0.920344 1.712500 0.322523
v 0.920343 1.712500 1.000000
v 0.079657 1.712500 1.000000
v 0.100001 1.947326 0.315002
v 0.100000 1.947396 1.000000
v 0.900001 1.947326 0.315003
v 0.900000 1.947396 1.000000
v 0.920344 1.947326 0.315003
v 0.920343 1.947396 1.000001
v 0.079657 1.947396 1.000000
v 0.079658 1.947326 0.315002
v 0.100001 1.750000 0.282521
v 0.100001 1.910218 0.281746
v 0.900001 1.750000 0.282523
v 0.900001 1.910218 0.281747
v 0.100000 0.900000 0.160000
v 0.100000 1.000000 0.093340
v 0.900000 0.900000 0.160000
v 0.900000 1.000000 0.093340
v 0.920344 1.712500 0.282523
v 0.900001 1.712500 0.282523
v 0.920344 1.750000 0.282523
v 0.100000 0.855000 0.160000
v 0.900000 0.855000 0.160000
v 0.920344 1.910218 0.281747
v 0.100000 -0.000000 0.160000
v 0.900000 -0.000000 0.160000
v 0.100001 1.712500 0.282521
v 0.079658 1.750000 0.282521
v 0.079658 1.712500 0.282521
v 0.079658 1.910218 0.281746
v 0.079657 0.900000 0.160000
v 0.079657 1.000000 0.093340
v 0.920343 0.900000 0.160000
v 0.920343 1.000000 0.093340
v 0.079657 0.855000 0.160000
v 0.920343 0.855000 0.160000
v 0.079657 -0.000000 0.160000
v 0.920343 -0.000000 0.160000
v 0.920344 1.932899 0.280191
v 0.900001 1.932899 0.280191
v 0.100001 1.932899 0.280190
v 0.079658 1.932899 0.280190
v 0.100000 -0.000000 0.571902
v 0.900000 -0.000000 0.571902
v 0.100000 1.980000 0.627387
v 0.900000 1.980000 0.627388
v 0.079657 -0.000000 0.560000
v 0.920343 -0.000000 0.560000
v 0.079657 1.980000 0.627387
v 0.920344 1.980000 0.627388
v 0.079657 1.000000 0.560000
v 0.920343 1.000000 0.560000
v 0.920343 0.900000 0.560000
v 0.079657 0.900000 0.560000
v 0.920343 0.855000 0.560000
v 0.079657 0.855000 0.560000
v 0.079657 1.750000 0.627387
v 0.920343 1.750000 0.627388
v 0.920343 1.712500 0.627388
v 0.079657 1.712500 0.627387
v 0.100000 2.000000 0.627387
v 0.900000 2.000000 0.627388
v 0.079657 2.000000 0.627387
v 0.920344 2.000000 0.627388
v 0.100000 1.040063 0.207499
v 0.900000 1.040063 0.207500
v 0.900000 1.077804 1.000000
v 0.100000 1.077804 1.000000
v 0.079657 1.077804 0.213379
v 0.920343 1.077804 0.213380
v 0.920343 1.077804 1.000000
v 0.079657 1.077804 1.000000
v 0.100000 1.077804 0.173260
v 0.900000 1.077804 0.173261
v 0.079657 1.077804 0.173260
v 0.920343 1.077804 0.173261
v 0.920343 1.077804 0.567359
v 0.079657 1.077804 0.567358
v 0.100000 1.192852 0.490323
v 0.900000 1.192851 0.490324
v 0.900000 1.374529 1.000000
v 0.100000 1.374529 1.000000
v 0.079657 1.374529 0.298571
v 0.920344 1.374529 0.298572
v 0.920343 1.374529 1.000000
v 0.079657 1.374529 1.000000
v 0.100001 1.374529 0.258508
v 0.900001 1.374529 0.258509
v 0.079657 1.374529 0.258508
v 0.920344 1.374529 0.258509
v 0.079657 1.374529 0.595422
v 0.920343 1.374529 0.595423
vn -0.0000 -1.0000 0.0000
vn 0.0000 0.9902 0.1398
vn 1.0000 0.0000 0.0000
vn -0.0000 -0.0000 1.0000
vn -0.0000 -0.9882 -0.1532
vn 0.0000 0.0000 -1.0000
vn -1.0000 0.0000 -0.0000
vn 0.0000 0.9866 -0.1633
vn 0.0000 -0.5547 -0.8321
vn 0.0000 -0.7877 -0.6160
vn 0.0000 0.9861 -0.1663
vn 0.0000 -0.0048 -1.0000
vn 0.0000 0.7165 -0.6976
vn 0.0000 0.0709 -0.9975
vn 0.0000 -0.0684 -0.9977
vn 0.0000 0.9238 -0.3829
vn 0.0000 0.2761 -0.9611
vn 0.0000 0.8798 -0.4753
vn 0.0000 0.0130 -0.9999
usemtl Body
s off
f 97//1 98//1 3//1 4//1
f 99//2 8//2 7//2 100//2
f 61//3 36//3 78//3 93//3
f 23//4 7//4 8//4 24//4
f 97//1 4//1 30//1 101//1
f 11//4 15//4 45//4 46//4
f 15//4 11//4 12//4 16//4
f 17//5 13//5 14//5 18//5
f 28//4 24//4 39//4 56//4
f 19//4 15//4 16//4 20//4
f 3//4 19//4 20//4 4//4
f 23//4 27//4 55//4 37//4
f 1//6 17//6 18//6 2//6
f 43//3 50//3 90//3 87//3
f 7//4 38//4 62//4 60//4
f 27//4 23//4 24//4 28//4
f 20//4 16//4 47//4 52//4
f 135//4 27//4 28//4 136//4
f 40//4 8//4 58//4 63//4
f 112//3 104//3 38//3 37//3
f 110//7 101//7 30//7 52//7
f 132//7 105//7 48//7 126//7
f 107//3 106//3 46//3 45//3
f 109//3 107//3 45//3 51//3
f 105//7 108//7 47//7 48//7
f 102//3 109//3 51//3 34//3
f 108//7 110//7 52//7 47//7
f 103//7 111//7 39//7 40//7
f 113//3 112//3 37//3 55//3
f 146//3 113//3 55//3 139//3
f 111//7 114//7 56//7 39//7
f 16//4 12//4 48//4 47//4
f 31//7 32//7 84//7 82//7
f 32//7 64//7 96//7 84//7
f 98//1 2//1 33//1 102//1
f 19//4 3//4 34//4 51//4
f 49//7 41//7 85//7 89//7
f 4//4 20//4 52//4 30//4
f 35//3 54//3 73//3 75//3
f 121//4 11//4 46//4 125//4
f 7//4 23//4 37//4 38//4
f 33//1 2//1 80//1 92//1
f 136//4 28//4 56//4 140//4
f 24//4 8//4 40//4 39//4
f 53//7 31//7 82//7 83//7
f 15//4 19//4 51//4 45//4
f 103//7 40//7 63//7 117//7
f 104//3 36//3 61//3 118//3
f 36//3 35//3 75//3 78//3
f 137//7 53//7 83//7 143//7
f 124//3 44//3 88//3 130//3
f 29//7 49//7 89//7 91//7
f 50//3 33//3 92//3 90//3
f 41//7 42//7 86//7 85//7
f 1//1 29//1 91//1 79//1
f 44//3 43//3 87//3 88//3
f 38//3 104//3 118//3 62//3
f 32//7 103//7 117//7 64//7
f 3//1 98//1 102//1 34//1
f 31//7 53//7 114//7 111//7
f 138//3 54//3 113//3 146//3
f 54//3 35//3 112//3 113//3
f 32//7 31//7 111//7 103//7
f 41//7 49//7 110//7 108//7
f 33//3 50//3 109//3 102//3
f 42//7 41//7 108//7 105//7
f 50//3 43//3 107//3 109//3
f 43//3 44//3 106//3 107//3
f 123//7 42//7 105//7 132//7
f 49//7 29//7 101//7 110//7
f 35//3 36//3 104//3 112//3
f 1//1 97//1 101//1 29//1
f 5//8 99//8 100//8 6//8
f 1//1 2//1 98//1 97//1
f 137//7 123//7 132//7 145//7
f 44//3 124//3 131//3 106//3
f 138//3 124//3 130//3 144//3
f 42//7 123//7 129//7 86//7
f 12//4 122//4 126//4 48//4
f 135//4 121//4 125//4 139//4
f 106//3 131//3 125//3 46//3
f 145//7 132//7 126//7 140//7
f 11//4 121//4 122//4 12//4
f 114//7 145//7 140//7 56//7
f 27//4 135//4 139//4 55//4
f 54//3 138//3 144//3 73//3
f 53//7 137//7 145//7 114//7
f 124//3 138//3 146//3 131//3
f 123//7 137//7 143//7 129//7
f 122//4 136//4 140//4 126//4
f 131//3 146//3 139//3 125//3
f 121//4 135//4 136//4 122//4
usemtl Bezel
f 17//3 1//3 79//3 76//3
f 13//9 9//9 10//9 14//9
f 6//7 59//7 94//7 68//7
f 25//10 21//10 22//10 26//10
f 14//7 10//7 72//7 71//7
f 9//3 13//3 69//3 70//3
f 116//2 60//2 62//2 118//2
f 115//11 57//11 64//11 117//11
f 26//7 22//7 67//7 74//7
f 100//7 7//7 60//7 116//7
f 99//3 5//3 57//3 115//3
f 21//3 25//3 81//3 65//3
f 76//6 79//6 91//6 89//6
f 71//9 72//9 88//9 87//9
f 70//9 69//9 85//9 86//9
f 74//6 67//6 75//6 73//6
f 65//6 81//6 83//6 82//6
f 66//12 65//12 82//12 84//12
f 80//6 77//6 90//6 92//6
f 127//13 70//13 86//13 129//13
f 67//12 68//12 78//12 75//12
f 142//14 74//14 73//14 144//14
f 69//6 76//6 89//6 85//6
f 77//6 71//6 87//6 90//6
f 78//15 68//15 94//15 93//15
f 66//15 84//15 96//15 95//15
f 5//3 21//3 65//3 66//3
f 2//7 18//7 77//7 80//7
f 57//3 5//3 66//3 95//3
f 59//16 61//16 93//16 94//16
f 119//3 9//3 70//3 127//3
f 22//7 6//7 68//7 67//7
f 134//7 26//7 74//7 142//7
f 64//16 57//16 95//16 96//16
f 13//3 17//3 76//3 69//3
f 18//7 14//7 71//7 77//7
f 8//3 99//3 115//3 58//3
f 6//7 100//7 116//7 59//7
f 58//2 115//2 117//2 63//2
f 59//11 116//11 118//11 61//11
f 10//7 120//7 128//7 72//7
f 133//3 119//3 127//3 141//3
f 72//13 128//13 130//13 88//13
f 141//17 127//17 129//17 143//17
f 81//14 141//14 143//14 83//14
f 25//3 133//3 141//3 81//3
f 120//7 134//7 142//7 128//7
f 128//17 142//17 144//17 130//17
usemtl Screen
f 133//18 25//18 26//18 134//18
f 9//18 119//18 120//18 10//18
f 119//18 133//18 134//18 120//18
usemtl Marquee
f 21//19 5//19 6//19 22//19
