# Blender v2.79 (sub 0) OBJ File: 'pong_v3.blend'
# www.blender.org
mtllib pong.mtl
o Cube.001
v 0.100000 1.950000 1.000000
v 0.100000 1.970000 1.000000
v 0.100000 1.950000 0.100000
v 0.100000 1.970000 0.100000
v 0.900000 1.950000 1.000000
v 0.900000 1.970000 1.000000
v 0.900000 1.950000 0.100000
v 0.900000 1.970000 0.100000
v 0.100000 1.970000 0.000000
v 0.100000 1.950000 0.000000
v 0.900000 1.950000 0.000000
v 0.900000 1.970000 0.000000
v 0.080000 1.950000 0.100000
v 0.080000 1.950000 1.000000
v 0.080000 1.970000 1.000000
v 0.080000 1.970000 0.100000
v 0.080000 1.970000 0.000000
v 0.080000 1.950000 0.000000
v 0.920000 1.970000 0.100000
v 0.920000 1.950000 0.100000
v 0.920000 1.950000 1.000000
v 0.920000 1.970000 1.000000
v 0.920000 1.970000 0.000000
v 0.920000 1.950000 0.000000
v 0.900000 -0.000000 0.150000
v 0.900000 -0.000000 1.000000
v 0.100000 -0.000000 1.000000
v 0.100000 -0.000000 0.150000
v 0.900000 1.950000 0.100001
v 0.899999 1.950000 1.000001
v 0.100000 1.950000 1.000000
v 0.100000 1.950000 0.100000
v 0.080000 -0.000000 1.000000
v 0.080000 -0.000000 0.050000
v 0.080000 1.950000 1.000000
v 0.080000 1.950000 0.050000
v 0.920000 -0.000000 0.050000
v 0.920000 -0.000000 1.000000
v 0.920000 1.950000 0.050001
v 0.919999 1.950000 1.000001
v 0.900000 -0.000000 0.050000
v 0.900000 1.950000 0.000001
v 0.100000 -0.000000 0.050000
v 0.100000 1.950000 0.000000
v 0.080000 -0.000000 0.050000
v 0.080000 1.950000 -0.000000
v 0.920000 -0.000000 0.050000
v 0.920000 1.950000 0.000001
v 0.900000 0.775000 0.050000
v 0.100000 0.775000 0.050000
v 0.100000 0.497500 0.050000
v 0.900000 0.497500 0.050000
v 0.900000 0.962500 0.200000
v 0.100000 0.962500 0.200000
v 0.765359 1.202829 0.176929
v 0.765359 1.739671 0.123072
v 0.234642 1.202829 0.176929
v 0.234642 1.739671 0.123071
v 0.750326 1.148173 0.472586
v 0.750326 1.581666 0.513624
v 0.249674 1.148173 0.472585
v 0.249674 1.581666 0.513624
v 0.920000 0.975000 0.150000
v 0.900000 0.975000 0.150000
v 0.100000 0.975000 0.150000
v 0.080000 0.974996 0.150000
v 0.900000 0.291495 0.000000
v 0.920000 0.291494 0.000000
v 0.080000 0.291494 -0.000000
v 0.100000 0.291494 -0.000000
v 0.900000 0.791866 0.000000
v 0.920000 0.791867 0.000000
v 0.080000 0.791865 -0.000000
v 0.100000 0.791867 -0.000000
v 0.080000 0.974996 0.200000
v 0.920000 0.974999 0.200000
v 0.920000 0.974999 1.000000
v 0.080000 0.974999 1.000000
v 0.100000 0.974999 1.000000
v 0.900000 0.974999 1.000000
v 0.920000 0.291494 0.094845
v 0.920000 0.791868 0.171826
v 0.080000 0.791865 0.171826
v 0.080000 0.291494 0.094845
v 0.080000 0.791865 1.000000
v 0.080000 0.291494 1.000000
v 0.100000 0.791866 1.000000
v 0.900000 0.791866 1.000000
v 0.920000 0.791864 1.000000
v 0.920000 0.291493 1.000000
v 0.900000 0.291494 1.000000
v 0.100000 0.291494 1.000000
vn 0.0000 1.0000 0.0000
vn 0.0000 0.0000 1.0000
vn 0.0000 -1.0000 0.0000
vn -1.0000 0.0000 0.0000
vn 1.0000 0.0000 0.0000
vn 0.0000 0.0000 -1.0000
vn 0.0000 -0.1971 -0.9804
vn 0.0000 0.6247 -0.7809
vn -0.4158 -0.9095 0.0000
vn 0.9545 0.2983 0.0000
vn 0.0000 -0.1521 -0.9884
vn -0.0000 -0.1691 -0.9856
vn -0.0001 0.6337 -0.7736
vn -0.0000 0.6337 -0.7736
vn 0.0000 -0.9474 -0.3201
vn 0.0000 0.0444 -0.9990
vn 0.0000 -0.1090 -0.9940
vn 0.0112 -0.1004 -0.9949
vn 0.0000 -0.0956 -0.9954
vn -0.0112 -0.1004 -0.9949
vn 0.0000 -0.6981 -0.7160
vn -0.9990 -0.0006 -0.0440
vn -0.0000 0.9833 0.1818
vn 0.9990 -0.0006 -0.0440
vn 0.0000 -0.9270 -0.3750
vn 0.0000 0.0942 -0.9955
usemtl Wood
s off
f 4//1 8//1 12//1 9//1
f 5//2 6//2 2//2 1//2
f 8//1 4//1 2//1 6//1
f 7//3 3//3 10//3 11//3
f 14//4 15//4 16//4 13//4
f 13//4 16//4 17//4 18//4
f 20//5 19//5 22//5 21//5
f 19//5 20//5 24//5 23//5
f 25//3 26//3 27//3 28//3
f 26//2 91//2 92//2 27//2
f 33//4 86//4 84//4 34//4
f 37//5 81//5 90//5 38//5
f 32//5 54//5 65//5 44//5
f 34//4 84//4 69//4 45//4
f 39//5 76//5 63//5 48//5
f 25//4 52//4 67//4 41//4
f 50//6 49//6 52//6 51//6
f 51//7 52//7 25//7 28//7
f 54//8 53//8 49//8 50//8
f 66//4 75//4 36//4 46//4
f 63//5 76//5 82//5 72//5
f 77//5 76//5 39//5 40//5
f 79//2 80//2 30//2 31//2
f 75//4 78//4 35//4 36//4
f 67//4 52//4 49//4 71//4
f 71//4 49//4 53//4 64//4
f 64//4 53//4 29//4 42//4
f 65//5 54//5 50//5 74//5
f 74//5 50//5 51//5 70//5
f 70//5 51//5 28//5 43//5
f 68//5 81//5 37//5 47//5
f 72//5 82//5 81//5 68//5
f 73//4 83//4 75//4 66//4
f 69//4 84//4 83//4 73//4
f 83//4 85//4 78//4 75//4
f 84//4 86//4 85//4 83//4
f 87//2 88//2 80//2 79//2
f 92//2 91//2 88//2 87//2
f 89//5 82//5 76//5 77//5
f 90//5 81//5 82//5 89//5
f 7//9 11//9 42//9 29//9
f 3//10 32//10 44//10 10//10
usemtl Trim
f 1//2 2//2 15//2 14//2
f 12//1 8//1 19//1 23//1
f 10//6 9//6 12//6 11//6
f 9//6 10//6 18//6 17//6
f 4//1 9//1 17//1 16//1
f 2//1 4//1 16//1 15//1
f 8//1 6//1 22//1 19//1
f 11//6 12//6 23//6 24//6
f 6//2 5//2 21//2 22//2
f 37//3 25//3 41//3 47//3
f 28//3 27//3 33//3 34//3
f 27//2 92//2 86//2 33//2
f 30//2 80//2 77//2 40//2
f 26//3 25//3 37//3 38//3
f 44//11 65//11 66//11 46//11
f 41//12 67//12 68//12 47//12
f 28//3 34//3 45//3 43//3
f 63//11 64//11 42//11 48//11
f 66//13 65//13 74//13 73//13
f 68//6 67//6 71//6 72//6
f 69//12 70//12 43//12 45//12
f 72//14 71//14 64//14 63//14
f 73//6 74//6 70//6 69//6
f 77//2 80//2 88//2 89//2
f 78//2 79//2 31//2 35//2
f 85//2 87//2 79//2 78//2
f 89//2 88//2 91//2 90//2
f 90//2 91//2 26//2 38//2
f 86//2 92//2 87//2 85//2
f 11//15 24//15 48//15 42//15
f 10//16 44//16 46//16 18//16
usemtl Bezel
f 32//17 29//17 56//17 58//17
f 54//18 32//18 58//18 57//18
f 53//19 54//19 57//19 55//19
f 29//20 53//20 55//20 56//20
f 3//21 7//21 29//21 32//21
usemtl Inner_Bezel
f 56//22 55//22 59//22 60//22
f 55//23 57//23 61//23 59//23
f 57//24 58//24 62//24 61//24
f 58//25 56//25 60//25 62//25
usemtl Screen
f 60//26 59//26 61//26 62//26
