# Blender v2.78 (sub 0) OBJ File: 'prize_cabinet_glass.blend'
# www.blender.org
mtllib prize_cabinet_glass.mtl
o Cube
v 0.949999 0.950000 0.950008
v 0.050000 0.950000 0.050000
v 0.020000 0.050000 0.950000
v 0.020000 0.950000 0.950000
v 0.020000 0.050000 0.050000
v 0.020000 0.950000 0.050000
v 0.030000 0.050000 0.950000
v 0.030000 0.950000 0.950000
v 0.030000 0.050000 0.050000
v 0.030000 0.950000 0.050000
v 0.050000 0.050000 0.030000
v 0.050000 0.950000 0.030000
v 0.050000 0.050000 0.020000
v 0.050000 0.950000 0.020000
v 0.950000 0.050000 0.030000
v 0.950000 0.950000 0.030000
v 0.950000 0.050000 0.020000
v 0.950000 0.950000 0.020000
v 0.539566 0.050000 0.082475
v 0.616852 0.050000 0.273595
v 0.683141 0.050000 0.534566
v 0.795494 0.050000 0.437287
v 0.970000 0.050000 0.950000
v 0.970000 0.950000 0.950000
v 0.970000 0.050000 0.050000
v 0.970000 0.950000 0.050000
v 0.980000 0.050000 0.950000
v 0.980000 0.950000 0.950000
v 0.980000 0.050000 0.050000
v 0.980000 0.950000 0.050000
v 0.050000 0.970000 0.950000
v 0.050000 0.980000 0.950000
v 0.050000 0.970000 0.050000
v 0.050000 0.980000 0.050000
v 0.950000 0.970000 0.950000
v 0.950000 0.980000 0.950000
v 0.950000 0.970000 0.050000
v 0.950000 0.980000 0.050000
vn -1.0000 0.0000 0.0000
vn 0.0000 0.0000 -1.0000
vn 1.0000 0.0000 0.0000
vn 0.0000 0.0000 1.0000
vn 0.0000 -1.0000 0.0000
vn 0.0000 1.0000 0.0000
usemtl Glass
s off
f 3//1 4//1 6//1 5//1
f 5//2 6//2 10//2 9//2
f 9//3 10//3 8//3 7//3
f 7//4 8//4 4//4 3//4
f 5//5 9//5 7//5 3//5
f 10//6 6//6 4//6 8//6
f 11//1 12//1 14//1 13//1
f 13//2 14//2 18//2 17//2
f 17//3 18//3 16//3 15//3
f 15//4 16//4 12//4 11//4
f 13//5 17//5 15//5 11//5
f 18//6 14//6 12//6 16//6
f 23//1 24//1 26//1 25//1
f 25//2 26//2 30//2 29//2
f 29//3 30//3 28//3 27//3
f 27//4 28//4 24//4 23//4
f 25//5 29//5 27//5 23//5
f 30//6 26//6 24//6 28//6
f 31//1 32//1 34//1 33//1
f 33//2 34//2 38//2 37//2
f 37//3 38//3 36//3 35//3
f 35//4 36//4 32//4 31//4
f 33//5 37//5 35//5 31//5
f 38//6 34//6 32//6 36//6
