# Blender v2.78 (sub 0) OBJ File: 'prize_cabinet_noglass.blend'
# www.blender.org
mtllib prize_cabinet.mtl
o Cube
v 0.950000 0.000000 0.050000
v 0.950000 0.000000 0.950000
v 0.050000 0.000000 0.950000
v 0.050000 0.000000 0.050000
v 0.950000 0.050000 0.050001
v 0.949999 0.050000 0.950001
v 0.050000 0.050000 0.950000
v 0.050000 0.050000 0.050000
v 0.950000 0.000000 0.000000
v 0.050000 0.000000 -0.000000
v 0.950000 0.050000 0.000001
v 0.050000 0.050000 0.000000
v 1.000000 -0.000000 0.050000
v 1.000000 -0.000000 0.950000
v 1.000000 0.050000 0.050001
v 0.999999 0.050000 0.950001
v 1.000000 0.000000 0.000000
v 1.000000 0.050000 0.000001
v 0.950000 -0.000000 1.000000
v 0.050000 -0.000000 1.000000
v 0.949999 0.050000 1.000001
v 0.050000 0.050000 1.000000
v 1.000000 -0.000001 1.000000
v 0.999999 0.049999 1.000001
v -0.000000 -0.000000 0.950000
v 0.000000 -0.000000 0.050000
v -0.000000 0.050000 0.950000
v 0.000000 0.050000 0.050000
v 0.000000 0.000000 -0.000000
v 0.000000 0.050000 -0.000000
v -0.000000 -0.000001 1.000000
v -0.000000 0.049999 1.000000
v -0.000001 0.949999 1.000007
v 0.049999 0.950000 1.000007
v 0.049999 0.950000 0.950007
v -0.000001 0.950000 0.950007
v 0.049999 0.950000 0.050007
v 0.049999 0.950000 0.000007
v 0.950000 0.950000 0.000008
v 0.950000 0.950000 0.050008
v 1.000000 0.950000 0.000008
v 1.000000 0.950000 0.050008
v 0.949999 0.950000 0.950008
v 0.999999 0.950000 0.950008
v 0.949999 0.950000 1.000008
v 0.999999 0.949999 1.000008
v -0.000001 0.950000 0.050007
v -0.000001 0.950000 0.000007
v 0.050000 0.950000 0.950000
v 0.050000 1.000000 0.950000
v 0.050000 0.950000 0.050000
v 0.050000 1.000000 0.050000
v 0.950000 0.950000 0.950000
v 0.950000 1.000000 0.950000
v 0.950000 0.950000 0.050000
v 0.950000 1.000000 0.050000
v 0.050000 1.000000 -0.000000
v 0.050000 0.950000 -0.000000
v 0.950000 0.950000 -0.000000
v 0.950000 1.000000 -0.000000
v 1.000000 1.000000 0.050000
v 1.000000 0.950000 0.050000
v 1.000000 0.950000 0.950000
v 1.000000 1.000000 0.950000
v 1.000000 1.000000 -0.000000
v 1.000000 0.950000 -0.000000
v -0.000000 0.950000 0.050000
v -0.000000 0.950000 0.950000
v -0.000000 1.000000 0.950000
v -0.000000 1.000000 0.050000
v -0.000000 1.000000 -0.000000
v -0.000000 0.950000 -0.000000
v 0.050000 0.950000 1.000000
v 0.050000 1.000000 1.000000
v -0.000000 1.000000 1.000000
v 0.950000 1.000000 1.000000
v 0.950000 0.950000 1.000000
v 1.000000 1.000000 1.000000
v 1.000000 0.950000 1.000000
v -0.000000 0.950000 1.000000
v 0.050000 0.480000 0.950000
v 0.050000 0.500000 0.950000
v 0.050000 0.480000 0.050000
v 0.050000 0.500000 0.050000
v 0.950000 0.480000 0.950000
v 0.950000 0.500000 0.950000
v 0.950000 0.480000 0.050000
v 0.950000 0.500000 0.050000
v 0.970000 0.500000 0.050000
v 0.970000 0.480000 0.050000
v 0.970000 0.480000 0.950000
v 0.970000 0.500000 0.950000
v 0.050000 0.500000 0.030000
v 0.050000 0.480000 0.030000
v 0.950000 0.480000 0.030000
v 0.950000 0.500000 0.030000
v 0.030000 0.480000 0.050000
v 0.030000 0.480000 0.950000
v 0.030000 0.500000 0.950000
v 0.030000 0.500000 0.050000
v 0.500000 0.050000 0.970000
v 0.500000 0.950000 0.970000
v 0.500000 0.050000 0.960000
v 0.500000 0.950000 0.960000
v 0.950000 0.050000 0.970000
v 0.950000 0.950000 0.970000
v 0.950000 0.050000 0.960000
v 0.950000 0.950000 0.960000
v 0.500000 0.050000 0.970000
v 0.500000 0.950000 0.970000
v 0.950000 0.950000 0.970000
v 0.950000 0.050000 0.970000
v 0.896306 0.452612 0.970000
v 0.896306 0.547388 0.970000
v 0.933694 0.547388 0.970000
v 0.933694 0.452612 0.970000
v 0.896306 0.452612 0.980000
v 0.896306 0.547388 0.980000
v 0.933694 0.547388 0.980000
v 0.933694 0.452612 0.980000
v 0.050000 0.050000 0.980000
v 0.050000 0.950000 0.980000
v 0.050000 0.050000 0.970000
v 0.050000 0.950000 0.970000
v 0.540000 0.050000 0.980000
v 0.540000 0.950000 0.980000
v 0.540000 0.050000 0.970000
v 0.540000 0.950000 0.970000
v 0.377873 0.050000 0.200184
v 0.377873 0.250000 0.200184
v 0.539566 0.050000 0.082475
v 0.539566 0.250000 0.082475
v 0.495582 0.050000 0.361877
v 0.495582 0.250000 0.361877
v 0.657275 0.050000 0.244168
v 0.657275 0.250000 0.244168
v 0.536005 0.050000 0.332450
v 0.536005 0.250000 0.332450
v 0.616852 0.050000 0.273595
v 0.616852 0.250000 0.273595
v 0.683141 0.050000 0.534566
v 0.683141 0.250000 0.534566
v 0.763988 0.050000 0.475711
v 0.763988 0.250000 0.475711
v 0.642718 0.050000 0.563993
v 0.642718 0.250000 0.563993
v 0.683141 0.050000 0.534566
v 0.683141 0.250000 0.534566
v 0.701573 0.050000 0.644839
v 0.701573 0.250000 0.644839
v 0.741996 0.050000 0.615412
v 0.741996 0.250000 0.615412
v 0.764081 0.250000 0.476188
v 0.764081 0.050000 0.476188
v 0.841882 0.050000 0.539013
v 0.841882 0.250000 0.539013
v 0.795494 0.250000 0.437287
v 0.795494 0.050000 0.437287
v 0.873295 0.050000 0.500113
v 0.873295 0.250000 0.500113
v 0.336270 0.500000 0.844130
v 0.336270 0.700000 0.844130
v 0.304410 0.500000 0.646684
v 0.304410 0.700000 0.646684
v 0.533716 0.500000 0.812270
v 0.533716 0.700000 0.812270
v 0.501856 0.500000 0.614824
v 0.501856 0.700000 0.614824
v 0.525751 0.500000 0.762908
v 0.525751 0.700000 0.762908
v 0.509821 0.500000 0.664185
v 0.509821 0.700000 0.664185
v 0.772559 0.500000 0.723083
v 0.772559 0.700000 0.723083
v 0.756629 0.500000 0.624360
v 0.756629 0.700000 0.624360
v 0.780524 0.500000 0.772445
v 0.780524 0.700000 0.772445
v 0.772559 0.500000 0.723083
v 0.772559 0.700000 0.723083
v 0.879246 0.500000 0.756515
v 0.879246 0.700000 0.756515
v 0.871282 0.500000 0.707153
v 0.871282 0.700000 0.707153
v 0.757096 0.700000 0.624492
v 0.757096 0.500000 0.624492
v 0.848314 0.500000 0.583514
v 0.848314 0.700000 0.583514
v 0.736607 0.700000 0.578883
v 0.736607 0.500000 0.578883
v 0.827825 0.500000 0.537905
v 0.827825 0.700000 0.537905
vn 0.0000 -1.0000 0.0000
vn 0.0000 1.0000 0.0000
vn -0.0000 0.0000 -1.0000
vn -0.0000 -0.0000 1.0000
vn 1.0000 0.0000 0.0000
vn -1.0000 -0.0000 -0.0000
vn -0.5885 0.0000 -0.8085
vn 0.8085 0.0000 -0.5885
vn 0.5885 0.0000 0.8085
vn -0.8085 0.0000 0.5885
vn 0.6283 0.0000 -0.7780
vn -0.7780 0.0000 -0.6283
vn 0.7780 0.0000 0.6283
vn -0.6283 0.0000 0.7780
vn -0.9872 0.0000 0.1593
vn -0.1593 0.0000 -0.9872
vn 0.9872 0.0000 -0.1593
vn 0.1593 0.0000 0.9872
vn -0.4098 0.0000 -0.9122
vn -0.9122 0.0000 0.4098
vn 0.9122 0.0000 -0.4098
vn 0.4098 0.0000 0.9122
usemtl Metal
s off
f 1//1 2//1 3//1 4//1
f 5//2 8//2 7//2 6//2
f 16//3 6//3 43//3 44//3
f 6//2 7//2 22//2 21//2
f 21//4 24//4 46//4 45//4
f 4//1 3//1 25//1 26//1
f 11//3 9//3 10//3 12//3
f 1//1 4//1 10//1 9//1
f 1//1 9//1 17//1 13//1
f 8//2 5//2 11//2 12//2
f 13//5 15//5 16//5 14//5
f 15//5 13//5 17//5 18//5
f 5//2 6//2 16//2 15//2
f 3//1 2//1 19//1 20//1
f 9//3 11//3 18//3 17//3
f 2//1 1//1 13//1 14//1
f 19//4 21//4 22//4 20//4
f 21//4 19//4 23//4 24//4
f 7//3 27//3 36//3 35//3
f 18//3 11//3 39//3 41//3
f 14//5 16//5 24//5 23//5
f 2//1 14//1 23//1 19//1
f 25//6 27//6 28//6 26//6
f 26//6 28//6 30//6 29//6
f 27//6 25//6 31//6 32//6
f 12//3 10//3 29//3 30//3
f 20//4 22//4 32//4 31//4
f 3//1 20//1 31//1 25//1
f 10//1 4//1 26//1 29//1
f 7//2 8//2 28//2 27//2
f 39//2 40//2 42//2 41//2
f 37//2 38//2 48//2 47//2
f 44//2 43//2 45//2 46//2
f 34//2 35//2 36//2 33//2
f 27//6 32//6 33//6 36//6
f 8//5 12//5 38//5 37//5
f 22//5 7//5 35//5 34//5
f 15//5 18//5 41//5 42//5
f 6//6 21//6 45//6 43//6
f 12//3 30//3 48//3 38//3
f 11//6 5//6 40//6 39//6
f 30//6 28//6 47//6 48//6
f 24//5 16//5 44//5 46//5
f 28//4 8//4 37//4 47//4
f 5//4 15//4 42//4 40//4
f 32//4 22//4 34//4 33//4
f 57//3 58//3 72//3 71//3
f 49//1 53//1 77//1 73//1
f 56//2 54//2 64//2 61//2
f 63//5 64//5 78//5 79//5
f 53//6 54//6 56//6 55//6
f 49//3 50//3 54//3 53//3
f 58//3 57//3 60//3 59//3
f 60//2 56//2 61//2 65//2
f 55//1 51//1 58//1 59//1
f 52//2 56//2 60//2 57//2
f 62//5 61//5 64//5 63//5
f 61//5 62//5 66//5 65//5
f 59//3 60//3 65//3 66//3
f 50//2 69//2 75//2 74//2
f 55//1 59//1 66//1 62//1
f 53//1 55//1 62//1 63//1
f 68//6 69//6 70//6 67//6
f 67//6 70//6 71//6 72//6
f 58//1 51//1 67//1 72//1
f 50//2 52//2 70//2 69//2
f 51//1 49//1 68//1 67//1
f 52//2 57//2 71//2 70//2
f 73//4 74//4 75//4 80//4
f 77//4 76//4 74//4 73//4
f 76//4 77//4 79//4 78//4
f 53//1 63//1 79//1 77//1
f 68//1 49//1 73//1 80//1
f 64//2 54//2 76//2 78//2
f 69//6 68//6 80//6 75//6
f 54//2 50//2 74//2 76//2
f 83//1 81//1 98//1 97//1
f 84//2 88//2 96//2 93//2
f 86//4 85//4 91//4 92//4
f 85//4 86//4 82//4 81//4
f 83//1 87//1 85//1 81//1
f 88//2 84//2 82//2 86//2
f 90//5 89//5 92//5 91//5
f 85//1 87//1 90//1 91//1
f 88//2 86//2 92//2 89//2
f 87//3 88//3 89//3 90//3
f 94//3 93//3 96//3 95//3
f 83//6 84//6 93//6 94//6
f 88//5 87//5 95//5 96//5
f 87//1 83//1 94//1 95//1
f 98//6 99//6 100//6 97//6
f 84//3 83//3 97//3 100//3
f 81//4 82//4 99//4 98//4
f 82//2 84//2 100//2 99//2
f 51//5 52//5 50//5 49//5
f 55//4 56//4 52//4 51//4
f 101//6 102//6 104//6 103//6
f 103//3 104//3 108//3 107//3
f 107//5 108//5 106//5 105//5
f 102//4 101//4 109//4 110//4
f 103//1 107//1 105//1 101//1
f 108//2 104//2 102//2 106//2
f 109//4 112//4 116//4 113//4
f 101//4 105//4 112//4 109//4
f 106//4 102//4 110//4 111//4
f 105//4 106//4 111//4 112//4
f 115//2 114//2 118//2 119//2
f 110//4 109//4 113//4 114//4
f 111//4 110//4 114//4 115//4
f 112//4 111//4 115//4 116//4
f 120//4 119//4 118//4 117//4
f 116//5 115//5 119//5 120//5
f 113//1 116//1 120//1 117//1
f 114//6 113//6 117//6 118//6
f 121//6 122//6 124//6 123//6
f 123//3 124//3 128//3 127//3
f 127//5 128//5 126//5 125//5
f 125//4 126//4 122//4 121//4
f 123//1 127//1 125//1 121//1
f 128//2 124//2 122//2 126//2
usemtl Creeper
f 129//7 130//7 132//7 131//7
f 131//8 132//8 136//8 135//8
f 135//9 136//9 134//9 133//9
f 133//10 134//10 130//10 129//10
f 131//1 135//1 133//1 129//1
f 136//2 132//2 130//2 134//2
f 137//7 138//7 140//7 139//7
f 139//8 140//8 144//8 143//8
f 143//9 144//9 142//9 141//9
f 141//10 142//10 138//10 137//10
f 139//1 143//1 141//1 137//1
f 144//2 140//2 138//2 142//2
f 145//7 146//7 148//7 147//7
f 151//9 152//9 150//9 149//9
f 149//10 150//10 146//10 145//10
f 147//1 151//1 149//1 145//1
f 152//2 148//2 146//2 150//2
f 153//2 156//2 160//2 157//2
f 158//11 157//11 160//11 159//11
f 154//12 153//12 157//12 158//12
f 156//13 155//13 159//13 160//13
f 155//1 154//1 158//1 159//1
f 155//14 156//14 153//14 154//14
f 147//8 148//8 152//8 151//8
f 161//15 162//15 164//15 163//15
f 163//16 164//16 168//16 167//16
f 167//17 168//17 166//17 165//17
f 165//18 166//18 162//18 161//18
f 163//1 167//1 165//1 161//1
f 168//2 164//2 162//2 166//2
f 169//15 170//15 172//15 171//15
f 171//16 172//16 176//16 175//16
f 175//17 176//17 174//17 173//17
f 173//18 174//18 170//18 169//18
f 171//1 175//1 173//1 169//1
f 176//2 172//2 170//2 174//2
f 177//15 178//15 180//15 179//15
f 183//17 184//17 182//17 181//17
f 181//18 182//18 178//18 177//18
f 179//1 183//1 181//1 177//1
f 184//2 180//2 178//2 182//2
f 185//2 188//2 192//2 189//2
f 190//19 189//19 192//19 191//19
f 186//20 185//20 189//20 190//20
f 188//21 187//21 191//21 192//21
f 187//1 186//1 190//1 191//1
f 187//22 188//22 185//22 186//22
f 179//16 180//16 184//16 183//16
