# Blender v2.75 (sub 0) OBJ File: ''
# www.blender.org
mtllib spaceinvaders.mtl
o Cube.001
v 0.100000 0.896645 0.221640
v 0.100000 -0.000000 0.221640
v 0.100000 -0.000000 0.160000
v 0.100000 0.855000 0.160000
v 0.100000 0.900000 0.200000
v 0.100000 1.000000 0.133340
v 0.900000 1.000000 0.133341
v 0.900000 0.900000 0.200000
v 0.900001 1.929921 0.324854
v 0.900001 1.947326 0.315003
v 0.900001 1.932899 0.280191
v 0.900001 1.910218 0.281747
v 0.100000 1.366879 0.812461
v 0.100001 1.750000 0.322521
v 0.900001 1.750000 0.322523
v 0.900001 1.366879 0.812462
v 0.900000 1.000000 0.093340
v 0.900000 0.900000 0.160000
v 0.100000 0.900000 0.160000
v 0.100000 1.000000 0.093340
v 0.900000 2.000000 0.627388
v 0.900000 1.947396 1.000000
v 0.920343 1.947396 1.000001
v 0.920344 2.000000 0.627388
v 0.100000 2.000000 0.627387
v 0.100001 1.947326 0.315002
v 0.079658 1.947326 0.315002
v 0.079657 2.000000 0.627387
v 0.900001 1.750000 0.282523
v 0.900001 1.712500 0.282523
v 0.900000 1.980000 0.627388
v 0.900000 1.927396 1.000000
v 0.100000 1.980000 0.627387
v 0.100001 1.929920 0.324853
v 0.100001 1.712500 0.282521
v 0.100001 1.750000 0.282521
v 0.079657 -0.000000 0.160000
v 0.079657 0.855000 0.160000
v 0.920343 1.000000 0.093340
v 0.920343 0.900000 0.160000
v 0.079657 0.900000 0.160000
v 0.079657 1.000000 0.093340
v 0.920344 1.750000 0.282523
v 0.920344 1.712500 0.282523
v 0.079658 1.712500 0.282521
v 0.079658 1.750000 0.282521
v 0.100001 1.910218 0.281746
v 0.079658 1.910218 0.281746
v 0.900000 -0.000000 0.160000
v 0.900000 0.855000 0.160000
v 0.920343 0.855000 0.160000
v 0.920343 -0.000000 0.160000
v 0.100000 1.077804 0.173260
v 0.079657 1.077804 0.173260
v 0.920344 1.910218 0.281747
v 0.900001 1.374529 0.258509
v 0.920344 1.374529 0.258509
v 0.920344 1.932899 0.280191
v 0.079658 1.932899 0.280190
v 0.100001 1.932899 0.280190
v 0.900000 -0.000000 0.221640
v 0.900000 0.896645 0.221640
v 0.920344 1.947326 0.315003
v 0.100000 1.040063 0.207499
v 0.900000 1.192851 0.490324
v 0.100000 1.927396 1.000000
v 0.100000 1.947396 1.000000
v 0.079657 1.947396 1.000000
v 0.900000 1.040063 0.207500
v 0.900000 1.077804 0.173261
v 0.100000 1.192852 0.490323
v 0.100001 1.374529 0.258508
v 0.920343 1.077804 0.173261
v 0.079657 1.374529 0.258508
v 0.100000 -0.000000 0.571902
v 0.900000 -0.000000 0.571902
v 0.900000 -0.000000 1.000000
v 0.100000 -0.000000 1.000000
v 0.920344 1.929921 0.324854
v 0.900000 1.750000 1.000000
v 0.100000 1.750000 1.000000
v 0.079656 -0.000000 1.000000
v 0.079657 -0.000000 0.560000
v 0.900000 1.000000 1.000000
v 0.900000 0.900000 1.000000
v 0.920343 0.900000 1.000000
v 0.920343 1.000000 1.000000
v 0.100000 1.000000 1.000000
v 0.100000 0.900000 1.000000
v 0.100000 1.712500 1.000000
v 0.079657 1.750000 1.000000
v 0.079657 1.712500 1.000000
v 0.900000 0.855000 1.000000
v 0.100000 0.855000 1.000000
v 0.900000 1.712500 1.000000
v 0.920343 1.712500 1.000000
v 0.920343 1.750000 1.000000
v 0.920343 0.900000 0.200000
v 0.920343 0.855000 0.200000
v 0.920343 1.927396 1.000001
v 0.079657 0.900000 1.000000
v 0.079657 0.855000 1.000000
v 0.900000 1.374529 1.000000
v 0.100000 1.374529 1.000000
v 0.079657 1.927396 1.000000
v 0.920343 1.750000 0.627388
v 0.920344 1.980000 0.627388
v 0.079657 0.855000 0.560000
v 0.079657 1.077804 0.567358
v 0.079657 1.000000 0.560000
v 0.079657 1.000000 1.000000
v 0.079657 1.077804 1.000000
v 0.920343 0.900000 0.560000
v 0.920343 1.000000 0.560000
v 0.920343 0.855000 0.560000
v 0.920343 0.855000 1.000000
v 0.079657 0.900000 0.560000
v 0.920343 -0.000000 0.560000
v 0.920343 -0.000000 1.000000
v 0.079657 1.980000 0.627387
v 0.079657 1.750000 0.627387
v 0.920343 1.712500 0.627388
v 0.920343 1.374529 0.595423
v 0.920343 1.374529 1.000000
v 0.079657 1.712500 0.627387
v 0.079658 1.750000 0.322521
v 0.079658 1.929920 0.324853
v 0.920343 -0.000000 0.200000
v 0.079657 0.855000 0.200000
v 0.079657 0.900000 0.200000
v 0.920344 1.750000 0.322523
v 0.920344 1.712500 0.322523
v 0.900000 1.077804 1.000000
v 0.920343 1.077804 1.000000
v 0.079657 1.374529 1.000000
v 0.079658 1.712500 0.322521
v 0.079657 1.374529 0.298571
v 0.920343 1.077804 0.213380
v 0.920343 1.000000 0.200001
v 0.079657 -0.000000 0.200000
v 0.079657 1.000000 0.200000
v 0.920344 1.374529 0.298572
v 0.079657 1.077804 0.213379
v 0.079657 1.374529 0.595422
v 0.920343 1.077804 0.567359
v 0.100000 1.077804 1.000000
vn 0.000000 -1.000000 -0.000000
vn -0.000000 0.990200 0.139800
vn 1.000000 0.000000 0.000000
vn -0.000000 -0.000000 1.000000
vn 0.000000 -0.988200 -0.153200
vn 0.000000 0.000000 -1.000000
vn -1.000000 0.000000 -0.000000
vn -0.000000 0.986600 -0.163300
vn 0.000000 0.879800 -0.475300
vn 0.000000 -0.554700 -0.832100
vn 0.000000 -0.787700 -0.616000
vn 0.000000 0.986100 -0.166300
vn 0.000000 -0.004800 -1.000000
vn 0.000000 0.716500 -0.697600
vn 0.000000 0.070900 -0.997500
vn 0.000000 -0.068400 -0.997700
vn 0.000000 0.923800 -0.382800
vn 0.000000 0.276100 -0.961100
vn 0.000000 0.013000 -0.999900
usemtl Body
s 1
f 75//1 76//1 77//1 78//1
f 33//2 66//2 32//2 31//2
f 63//3 79//3 55//3 58//3
f 80//4 32//4 66//4 81//4
f 75//1 78//1 82//1 83//1
f 84//4 85//4 86//4 87//4
f 85//4 84//4 88//4 89//4
f 1//5 5//5 8//5 62//5
f 90//4 81//4 91//4 92//4
f 93//4 85//4 89//4 94//4
f 77//4 93//4 94//4 78//4
f 80//4 95//4 96//4 97//4
f 2//6 1//6 62//6 61//6
f 98//3 99//3 51//3 40//3
f 32//4 100//4 23//4 22//4
f 95//4 80//4 81//4 90//4
f 94//4 89//4 101//4 102//4
f 103//4 95//4 90//4 104//4
f 105//4 66//4 67//4 68//4
f 106//3 107//3 100//3 97//3
f 108//7 83//7 82//7 102//7
f 109//7 110//7 111//7 112//7
f 113//3 114//3 87//3 86//3
f 115//3 113//3 86//3 116//3
f 110//7 117//7 101//7 111//7
f 118//3 115//3 116//3 119//3
f 117//7 108//7 102//7 101//7
f 120//7 121//7 91//7 105//7
f 122//3 106//3 97//3 96//3
f 123//3 122//3 96//3 124//3
f 121//7 125//7 92//7 91//7
f 89//4 88//4 111//4 101//4
f 126//7 127//7 48//7 46//7
f 127//7 27//7 59//7 48//7
f 76//1 61//1 128//1 118//1
f 93//4 77//4 119//4 116//4
f 129//7 130//7 41//7 38//7
f 78//4 94//4 102//4 82//4
f 131//3 132//3 44//3 43//3
f 133//4 84//4 87//4 134//4
f 32//4 80//4 97//4 100//4
f 128//1 61//1 49//1 52//1
f 104//4 90//4 92//4 135//4
f 81//4 66//4 105//4 91//4
f 136//7 126//7 46//7 45//7
f 85//4 93//4 116//4 86//4
f 120//7 105//7 68//7 28//7
f 107//3 79//3 63//3 24//3
f 79//3 131//3 43//3 55//3
f 137//7 136//7 45//7 74//7
f 138//3 139//3 39//3 73//3
f 140//7 129//7 38//7 37//7
f 99//3 128//3 52//3 51//3
f 130//7 141//7 42//7 41//7
f 2//1 140//1 37//1 3//1
f 139//3 98//3 40//3 39//3
f 100//3 107//3 24//3 23//3
f 127//7 120//7 28//7 27//7
f 77//1 76//1 118//1 119//1
f 126//7 136//7 125//7 121//7
f 142//3 132//3 122//3 123//3
f 132//3 131//3 106//3 122//3
f 127//7 126//7 121//7 120//7
f 130//7 129//7 108//7 117//7
f 128//3 99//3 115//3 118//3
f 141//7 130//7 117//7 110//7
f 99//3 98//3 113//3 115//3
f 98//3 139//3 114//3 113//3
f 143//7 141//7 110//7 109//7
f 129//7 140//7 83//7 108//7
f 131//3 79//3 107//3 106//3
f 2//1 75//1 83//1 140//1
f 34//8 33//8 31//8 9//8
f 2//1 61//1 76//1 75//1
f 137//7 143//7 109//7 144//7
f 139//3 138//3 145//3 114//3
f 142//3 138//3 73//3 57//3
f 141//7 143//7 54//7 42//7
f 88//4 146//4 112//4 111//4
f 103//4 133//4 134//4 124//4
f 114//3 145//3 134//3 87//3
f 144//7 109//7 112//7 135//7
f 84//4 133//4 146//4 88//4
f 125//7 144//7 135//7 92//7
f 95//4 103//4 124//4 96//4
f 132//3 142//3 57//3 44//3
f 136//7 137//7 144//7 125//7
f 138//3 142//3 123//3 145//3
f 143//7 137//7 74//7 54//7
f 146//4 104//4 135//4 112//4
f 145//3 123//3 124//3 134//3
f 133//4 103//4 104//4 146//4
usemtl Screen
f 71//9 13//9 16//9 65//9
f 6//9 64//9 69//9 7//9
f 64//9 71//9 65//9 69//9
usemtl Bezel
f 1//3 2//3 3//3 4//3
f 5//10 6//10 7//10 8//10
f 9//7 10//7 11//7 12//7
f 13//11 14//11 15//11 16//11
f 8//7 7//7 17//7 18//7
f 6//3 5//3 19//3 20//3
f 21//2 22//2 23//2 24//2
f 25//12 26//12 27//12 28//12
f 16//7 15//7 29//7 30//7
f 31//7 32//7 22//7 21//7
f 33//3 34//3 26//3 25//3
f 14//3 13//3 35//3 36//3
f 4//6 3//6 37//6 38//6
f 18//10 17//10 39//10 40//10
f 20//10 19//10 41//10 42//10
f 30//6 29//6 43//6 44//6
f 36//6 35//6 45//6 46//6
f 47//13 36//13 46//13 48//13
f 49//6 50//6 51//6 52//6
f 53//14 20//14 42//14 54//14
f 29//13 12//13 55//13 43//13
f 56//15 30//15 44//15 57//15
f 19//6 4//6 38//6 41//6
f 50//6 18//6 40//6 51//6
f 55//16 12//16 11//16 58//16
f 47//16 48//16 59//16 60//16
f 34//3 14//3 36//3 47//3
f 61//7 62//7 50//7 49//7
f 26//3 34//3 47//3 60//3
f 10//17 63//17 58//17 11//17
f 64//3 6//3 20//3 53//3
f 15//7 9//7 12//7 29//7
f 65//7 16//7 30//7 56//7
f 27//17 26//17 60//17 59//17
f 5//3 1//3 4//3 19//3
f 62//7 8//7 18//7 50//7
f 66//3 33//3 25//3 67//3
f 9//7 31//7 21//7 10//7
f 67//2 25//2 28//2 68//2
f 10//12 21//12 24//12 63//12
f 7//7 69//7 70//7 17//7
f 71//3 64//3 53//3 72//3
f 17//14 70//14 73//14 39//14
f 72//18 53//18 54//18 74//18
f 35//15 72//15 74//15 45//15
f 13//3 71//3 72//3 35//3
f 69//7 65//7 56//7 70//7
f 70//18 56//18 57//18 73//18
usemtl Marquee
f 14//19 34//19 9//19 15//19
