# Blender v2.78 (sub 0) OBJ File: 'tetris_v2.blend'
# www.blender.org
mtllib tetris.mtl
o Cube
v 0.100000 0.000000 0.200000
v 0.900000 0.000000 0.200000
v 0.900000 0.000000 1.000000
v 0.100000 0.000000 1.000000
v 0.100000 1.980000 0.200000
v 0.900000 1.980000 0.200001
v 0.900000 1.732769 1.000000
v 0.100000 1.732769 1.000000
v 0.100000 0.990896 0.040000
v 0.900000 0.990896 0.040000
v 0.900000 1.000000 1.000000
v 0.100000 1.000000 1.000000
v 0.100000 0.800000 0.040000
v 0.900000 0.800000 0.040000
v 0.900000 0.800000 1.000000
v 0.100000 0.800000 1.000000
v 0.100000 0.720870 0.200000
v 0.900000 0.720870 0.200000
v 0.900000 0.760000 1.000000
v 0.100000 0.760000 1.000000
v 0.100000 1.041741 0.200000
v 0.900000 1.041741 0.200000
v 0.900000 1.050000 1.000000
v 0.100000 1.050000 1.000000
v 0.100000 1.715000 0.200000
v 0.900000 1.715000 0.200001
v 0.900000 1.717885 1.000000
v 0.100000 1.717885 1.000000
v 0.100000 1.510444 0.563086
v 0.900000 1.510444 0.563087
v 0.900000 1.684635 1.000000
v 0.100000 1.684635 1.000000
v 0.081724 0.000000 0.200000
v 0.081723 0.000000 1.000000
v 0.081724 1.715000 0.200000
v 0.081724 1.980000 0.200000
v 0.918276 0.000000 0.200000
v 0.918276 0.000000 1.000000
v 0.918277 1.715000 0.200001
v 0.918277 1.980000 0.200001
v 0.918276 1.717885 1.000000
v 0.918276 1.732769 1.000000
v 0.081724 1.717885 1.000000
v 0.081724 1.732769 1.000000
v 0.081724 0.800000 0.200000
v 0.081724 1.000000 0.200000
v 0.918276 0.800000 0.200000
v 0.918276 1.000000 0.200000
v 0.918276 0.800000 1.000000
v 0.918276 1.000000 1.000000
v 0.081724 0.800000 1.000000
v 0.081724 1.000000 1.000000
v 0.081724 0.760000 0.200000
v 0.918276 0.760000 0.200000
v 0.918276 0.760000 1.000000
v 0.081724 0.760000 1.000000
v 0.081724 1.050000 0.200000
v 0.918276 1.050000 0.200000
v 0.918276 1.050000 1.000000
v 0.081724 1.050000 1.000000
v 0.081724 1.536172 0.382995
v 0.918277 1.536172 0.382996
v 0.918276 1.684635 1.000000
v 0.081724 1.684635 1.000000
v 0.100000 1.715000 0.180000
v 0.100000 1.980000 0.180000
v 0.900000 1.715000 0.180001
v 0.900000 1.980000 0.180001
v 0.100000 0.800000 0.020000
v 0.100000 1.000000 0.020000
v 0.900000 0.800000 0.020000
v 0.900000 1.000000 0.020000
v 0.100000 0.720870 0.180000
v 0.900000 0.720870 0.180000
v 0.918276 0.720870 0.180000
v 0.918276 0.800000 0.020000
v 0.100000 0.000000 0.180000
v 0.900000 0.000000 0.180000
v 0.100000 1.050000 0.180000
v 0.900000 1.050000 0.180000
v 0.081724 0.800000 0.020000
v 0.100000 1.536172 0.362995
v 0.900000 1.536172 0.362996
v 0.081724 0.720870 0.180000
v 0.081724 1.715000 0.180000
v 0.081724 1.980000 0.180000
v 0.918277 1.715000 0.180001
v 0.918277 1.980000 0.180001
v 0.081724 1.000000 0.020000
v 0.918276 1.000000 0.020000
v 0.081724 0.000000 0.180000
v 0.918276 0.000000 0.180000
v 0.081724 1.050000 0.180000
v 0.918276 1.050000 0.180000
v 0.081724 1.536172 0.362995
v 0.918277 1.536172 0.362996
v 0.100000 2.000000 0.200000
v 0.100000 1.752769 1.000000
v 0.900000 2.000000 0.200001
v 0.900000 1.752769 1.000000
v 0.081724 1.752769 1.000000
v 0.918276 1.752769 1.000000
v 0.081724 2.000000 0.200000
v 0.918277 2.000000 0.200001
v 0.081724 2.000000 0.180000
v 0.100000 2.000000 0.180000
v 0.918277 2.000000 0.180001
v 0.900000 2.000000 0.180001
v 0.100000 0.000000 0.440000
v 0.900000 0.000000 0.440000
v 0.100000 1.980000 0.440000
v 0.900000 1.980000 0.440001
v 0.081724 0.000000 0.440000
v 0.918276 0.000000 0.440000
v 0.081724 1.980000 0.440000
v 0.918276 1.980000 0.440001
v 0.081724 1.000000 0.440000
v 0.918276 1.000000 0.440000
v 0.918276 0.800000 0.440000
v 0.081724 0.800000 0.440000
v 0.918276 0.760000 0.440000
v 0.081724 0.760000 0.440000
v 0.081724 1.050000 0.440000
v 0.918276 1.050000 0.440000
v 0.081724 1.715000 0.440000
v 0.918276 1.715000 0.440001
v 0.918276 1.579845 0.568097
v 0.081724 1.579845 0.568096
v 0.100000 2.000000 0.440000
v 0.900000 2.000000 0.440001
v 0.081724 2.000000 0.440000
v 0.918276 2.000000 0.440001
v 0.247134 1.127944 0.266778
v 0.752866 1.127944 0.266778
v 0.247135 1.424241 0.496308
v 0.752866 1.424241 0.496309
v 0.247134 1.121811 0.274695
v 0.752866 1.121811 0.274696
v 0.247135 1.418108 0.504225
v 0.752866 1.418108 0.504226
v 0.400346 0.061199 0.200000
v 0.599654 0.061199 0.200000
v 0.400346 0.505830 0.200000
v 0.599654 0.505830 0.200000
v 0.400346 0.061199 0.186260
v 0.599654 0.061199 0.186260
v 0.400346 0.505830 0.186260
v 0.599654 0.505830 0.186260
vn 0.0000 -1.0000 0.0000
vn -0.0000 0.9148 0.4039
vn 1.0000 -0.0000 0.0000
vn -0.0000 -0.0000 1.0000
vn -1.0000 0.0000 -0.0000
vn 0.0000 0.0000 -1.0000
vn 0.0000 -0.8712 -0.4908
vn 0.0000 1.0000 -0.0000
vn 0.0000 0.3523 -0.9359
vn 0.0000 0.9545 -0.2983
vn 0.0000 -0.8964 -0.4433
vn 0.0000 -0.7152 -0.6989
vn 0.0000 0.6124 -0.7905
vn -0.0000 0.7905 0.6124
vn 0.0000 -0.7905 -0.6124
vn 0.0000 0.9530 -0.3029
usemtl Body
s off
f 109//1 110//1 3//1 4//1
f 111//2 8//2 7//2 112//2
f 17//3 1//3 77//3 73//3
f 27//4 7//4 8//4 28//4
f 23//4 11//4 50//4 59//4
f 45//5 46//5 89//5 81//5
f 15//4 11//4 12//4 16//4
f 20//4 16//4 51//4 56//4
f 19//4 15//4 16//4 20//4
f 54//3 37//3 92//3 75//3
f 3//4 19//4 20//4 4//4
f 116//3 40//3 104//3 132//3
f 18//6 2//6 142//6 144//6
f 15//4 19//4 55//4 49//4
f 37//1 2//1 78//1 92//1
f 11//4 23//4 24//4 12//4
f 28//4 8//4 44//4 43//4
f 32//4 28//4 43//4 64//4
f 31//4 27//4 28//4 32//4
f 14//5 10//5 72//5 71//5
f 29//7 25//7 26//7 30//7
f 7//4 27//4 41//4 42//4
f 23//4 31//4 32//4 24//4
f 27//4 31//4 63//4 41//4
f 126//3 116//3 42//3 41//3
f 122//5 113//5 34//5 56//5
f 123//5 117//5 52//5 60//5
f 119//3 118//3 50//3 49//3
f 121//3 119//3 49//3 55//3
f 117//5 120//5 51//5 52//5
f 114//3 121//3 55//3 38//3
f 120//5 122//5 56//5 51//5
f 128//5 123//5 60//5 64//5
f 118//3 124//3 59//3 50//3
f 115//5 125//5 43//5 44//5
f 127//3 126//3 41//3 63//3
f 124//3 127//3 63//3 59//3
f 125//5 128//5 64//5 43//5
f 33//5 53//5 84//5 91//5
f 12//4 24//4 60//4 52//4
f 22//5 30//5 83//5 80//5
f 39//3 62//3 96//3 87//3
f 31//4 23//4 59//4 63//4
f 11//4 15//4 49//4 50//4
f 109//1 4//1 34//1 113//1
f 9//3 13//3 69//3 70//3
f 24//4 32//4 64//4 60//4
f 16//4 12//4 52//4 51//4
f 29//3 21//3 79//3 82//3
f 1//1 33//1 91//1 77//1
f 110//1 2//1 37//1 114//1
f 19//4 3//4 38//4 55//4
f 61//5 35//5 85//5 95//5
f 10//5 22//5 80//5 72//5
f 4//4 20//4 56//4 34//4
f 7//4 42//4 102//4 100//4
f 44//4 8//4 98//4 101//4
f 48//3 47//3 76//3 90//3
f 5//3 25//3 65//3 66//3
f 2//5 18//5 74//5 78//5
f 25//3 29//3 82//3 65//3
f 26//5 6//5 68//5 67//5
f 57//5 61//5 95//5 93//5
f 30//5 26//5 67//5 83//5
f 62//3 58//3 94//3 96//3
f 46//5 57//5 93//5 89//5
f 58//3 48//3 90//3 94//3
f 13//3 17//3 73//3 69//3
f 53//5 45//5 81//5 84//5
f 35//5 36//5 86//5 85//5
f 18//5 14//5 71//5 74//5
f 47//3 54//3 75//3 76//3
f 21//3 9//3 70//3 79//3
f 40//3 39//3 87//3 88//3
f 68//5 6//5 99//5 108//5
f 112//5 7//5 100//5 130//5
f 5//3 66//3 106//3 97//3
f 86//5 36//5 103//5 105//5
f 115//5 44//5 101//5 131//5
f 40//3 88//3 107//3 104//3
f 111//3 5//3 97//3 129//3
f 8//3 111//3 129//3 98//3
f 36//5 115//5 131//5 103//5
f 6//5 112//5 130//5 99//5
f 3//1 110//1 114//1 38//1
f 1//1 109//1 113//1 33//1
f 35//5 61//5 128//5 125//5
f 58//3 62//3 127//3 124//3
f 62//3 39//3 126//3 127//3
f 36//5 35//5 125//5 115//5
f 48//3 58//3 124//3 118//3
f 61//5 57//5 123//5 128//5
f 45//5 53//5 122//5 120//5
f 37//3 54//3 121//3 114//3
f 46//5 45//5 120//5 117//5
f 54//3 47//3 119//3 121//3
f 47//3 48//3 118//3 119//3
f 57//5 46//5 117//5 123//5
f 53//5 33//5 113//5 122//5
f 39//3 40//3 116//3 126//3
f 42//3 116//3 132//3 102//3
f 5//8 111//8 112//8 6//8
f 1//1 2//1 110//1 109//1
f 144//3 142//3 146//3 148//3
f 17//6 18//6 144//6 143//6
f 1//6 17//6 143//6 141//6
f 2//6 1//6 141//6 142//6
f 145//6 147//6 148//6 146//6
f 142//1 141//1 145//1 146//1
f 143//8 144//8 148//8 147//8
f 141//5 143//5 147//5 145//5
usemtl Bezel
f 88//6 68//6 108//6 107//6
f 82//9 79//9 93//9 95//9
f 72//10 80//10 94//10 90//10
f 79//10 70//10 89//10 93//10
f 74//11 71//11 76//11 75//11
f 69//11 73//11 84//11 81//11
f 70//6 69//6 81//6 89//6
f 80//9 83//9 96//9 94//9
f 71//6 72//6 90//6 76//6
f 73//6 77//6 91//6 84//6
f 66//6 65//6 85//6 86//6
f 78//6 74//6 75//6 92//6
f 65//12 82//12 95//12 85//12
f 67//6 68//6 88//6 87//6
f 83//12 67//12 87//12 96//12
f 130//2 100//2 102//2 132//2
f 129//8 97//8 103//8 131//8
f 103//8 97//8 106//8 105//8
f 99//8 104//8 107//8 108//8
f 66//6 86//6 105//6 106//6
f 98//2 129//2 131//2 101//2
f 99//8 130//8 132//8 104//8
usemtl Screen
f 137//13 139//13 140//13 138//13
usemtl Screen_Border
f 30//13 22//13 134//13 136//13
f 136//5 134//5 138//5 140//5
f 29//13 30//13 136//13 135//13
f 22//13 21//13 133//13 134//13
f 21//13 29//13 135//13 133//13
f 134//14 133//14 137//14 138//14
f 135//15 136//15 140//15 139//15
f 133//3 135//3 139//3 137//3
usemtl Controller_Top
f 13//6 9//6 10//6 14//6
f 9//16 21//16 22//16 10//16
usemtl Controller_Bottom
f 17//11 13//11 14//11 18//11
usemtl Marquee
f 25//6 5//6 6//6 26//6
